<svg xmlns="http://www.w3.org/2000/svg" width="239" height="278" viewBox="0 0 239 278" shape-rendering="geometricPrecision">
<rect width="100%" height="100%" fill="white"/>
<polygon points="238,208 120,277 238,277" fill="black"/>
<polygon points="0,208 0,277 118,277" fill="black"/>
<polygon points="120,6 6,72 6,205 119,271 232,205 232,72" fill="black"/>
<polygon points="121,0 238,68 238,0" fill="black"/>
<polygon points="0,68 117,0 0,0" fill="black"/>
<polygon points="119,21 222,81 222,198 121,257 18,197 18,81" fill="white"/>
<polygon points="119,144 87,165 87,180 95,203 116,220 116,228 121,232 124,230 124,220 145,204 153,185 154,166 142,156" fill="black"/>
<polygon points="211,123 205,110 197,102 186,97 166,98 121,125 77,99 55,97 44,102 34,112 29,132 35,149 44,159 55,164 65,165 77,162 121,135 166,163 179,165 195,160 205,150 211,136" fill="black"/>
<polygon points="73,69 76,68 77,60 79,61 79,66 83,66 84,59 85,66 89,66 91,60 99,60 102,63 98,70 105,69 101,75 103,77 108,75 110,78 96,87 96,102 119,116 145,101 145,88 131,78 133,75 137,77 140,75 135,70 142,71 143,68 139,65 142,60 150,60 151,66 155,66 157,59 158,66 162,66 162,61 164,60 165,69 168,70 165,59 161,59 160,65 159,59 155,59 154,65 152,64 152,59 141,59 137,65 142,69 135,68 134,71 138,75 132,73 130,77 121,73 113,77 109,74 103,76 107,70 105,68 99,69 104,65 100,59 89,59 88,65 86,64 86,59 82,59 81,65 79,64 79,59 75,59 75,67" fill="black"/>
<polygon points="100,196 101,193 141,194 133,204 121,213 105,202" fill="white"/>
<polygon points="94,172 96,170 145,170 146,180 97,182" fill="white"/>
<polygon points="114,157 119,153 126,156 124,158" fill="white"/>
<polygon points="129,129 169,105 182,104 193,109 199,116 163,117 160,119 160,123 163,125 202,125 204,132 202,135 162,135 160,140 163,143 199,144 186,155 173,156 138,137" fill="white"/>
<polygon points="37,134 38,125 80,124 81,120 78,117 41,116 49,108 59,104 74,106 112,130 78,152 68,156 55,155 49,152 42,144 77,143 81,140 79,135" fill="white"/>
<polygon points="119,82 137,91 137,97 122,107 115,105 103,96 105,90" fill="white"/>
<polygon points="118,91 117,97 123,98 124,92" fill="black"/>
</svg>