999
FreeCAD v1.0 39319 (Git)
  0
SECTION
  2
HEADER
  9
$ACADVER
  1
AC1014
  9
$ACADMAINTVER
 70
     9
  9
$DWGCODEPAGE
  3
ANSI_1252
  9
$TEXTSTYLE
  7
STANDARD
  9
$DIMSTYLE
  2
STANDARD
  9
$DIMTXSTY
  7
STANDARD
  9
$CMLSTYLE
  2
STANDARD
  9
$LUNITS
 70
2
  9
$INSUNITS
 70
4
  9
$PEXTMAX
 10
50
 20
50
 30
50
  9
$PEXTMIN
 10
0
 20
0
 30
0
  9
$HANDSEED
  5
FFFF
  0
ENDSEC
  0
SECTION
  2
CLASSES
  0
CLASS
  1
ACDBDICTIONARYWDFLT
  2
AcDbDictionaryWithDefault
  3
ObjectDBX Classes
 90
        0
280
     0
281
     0
  0
CLASS
  1
XRECORD
  2
AcDbXrecord
  3
ObjectDBX Classes
 90
        0
280
     0
281
     0
  0
CLASS
  1
LWPOLYLINE
  2
AcDbPolyline
  3
ObjectDBX Classes
 90
        0
280
     0
281
     1
  0
ENDSEC
  0
SECTION
  2
TABLES
  0
TABLE
  2
VPORT
  5
20
330
0
100
AcDbSymbolTable
 70
     1
  0
VPORT
  5
21
330
20
100
AcDbSymbolTableRecord
100
AcDbViewportTableRecord
  2
*ACTIVE
 70
     0
  0
ENDTAB
  0
TABLE
  2
LTYPE
  5
22
330
0
100
AcDbSymbolTable
 70
     1
  0
LTYPE
  5
23
330
21
100
AcDbSymbolTableRecord
100
AcDbLinetypeTableRecord
  2
BYBLOCK
 70
     0
  3

 72
    65
 73
     0
 40
0.0
  0
LTYPE
  5
24
330
21
100
AcDbSymbolTableRecord
100
AcDbLinetypeTableRecord
  2
BYLAYER
 70
     0
  3

 72
    65
 73
     0
 40
0.0
  0
LTYPE
  5
25
330
21
100
AcDbSymbolTableRecord
100
AcDbLinetypeTableRecord
  2
CONTINUOUS
 70
     0
  3
Solid line
 72
    65
 73
     0
 40
0.0
  0
ENDTAB
  0
TABLE
  2
LAYER
  5
ABD
330
0
100
AcDbSymbolTable
 70
7
  0
LAYER
  5
ABE
330
ABD
100
AcDbSymbolTableRecord
100
AcDbLayerTableRecord
  2
0
 70
   0
 62
   7
  6
CONTINUOUS
  0
LAYER
  5
ABF
330
ABD
100
AcDbSymbolTableRecord
100
AcDbLayerTableRecord
  2
View
 70
    0
 62
    7
  6
CONTINUOUS
  0
LAYER
  5
AC0
330
ABD
100
AcDbSymbolTableRecord
100
AcDbLayerTableRecord
  2
View001
 70
    0
 62
    7
  6
CONTINUOUS
  0
LAYER
  5
AC1
330
ABD
100
AcDbSymbolTableRecord
100
AcDbLayerTableRecord
  2
View002
 70
    0
 62
    7
  6
CONTINUOUS
  0
LAYER
  5
AC2
330
ABD
100
AcDbSymbolTableRecord
100
AcDbLayerTableRecord
  2
View004
 70
    0
 62
    7
  6
CONTINUOUS
  0
LAYER
  5
AC3
330
ABD
100
AcDbSymbolTableRecord
100
AcDbLayerTableRecord
  2
View005
 70
    0
 62
    7
  6
CONTINUOUS
  0
LAYER
  5
AC4
330
ABD
100
AcDbSymbolTableRecord
100
AcDbLayerTableRecord
  2
View008
 70
    0
 62
    7
  6
CONTINUOUS
  0
ENDTAB
  0
TABLE
  2
STYLE
  5
70
330
0
100
AcDbSymbolTable
 70
     2
  0
STYLE
  5
71
330
70
100
AcDbSymbolTableRecord
100
AcDbTextStyleTableRecord
  2
STANDARD
 70
     0
 40
0.0
 41
1.0
 50
0.0
 71
     0
 42
2.5
  3
arial.ttf
  4

  0
STYLE
  5
72
330
70
100
AcDbSymbolTableRecord
100
AcDbTextStyleTableRecord
  2
ANNOTATIVE
 70
     0
 40
0.0
 41
1.0
 50
0.0
 71
     0
 42
2.5
  3
arial.ttf
  4

  0
ENDTAB
  0
TABLE
  2
VIEW
  5
73
330
0
100
AcDbSymbolTable
 70
     0
  0
ENDTAB
  0
TABLE
  2
UCS
  5
74
330
0
100
AcDbSymbolTable
 70
     0
  0
ENDTAB
  0
TABLE
  2
APPID
  5
75
330
0
100
AcDbSymbolTable
 70
     2
  0
APPID
  5
76
330
75
100
AcDbSymbolTableRecord
100
AcDbRegAppTableRecord
  2
ACAD
 70
     0
  0
APPID
  5
77
330
75
100
AcDbSymbolTableRecord
100
AcDbRegAppTableRecord
  2
ACADANNOTATIVE
 70
     0
  0
ENDTAB
  0
TABLE
  2
DIMSTYLE
  5
78
330
0
100
AcDbSymbolTable
 70
     2
  0
DIMSTYLE
105
79
330
78
100
AcDbSymbolTableRecord
100
AcDbDimStyleTableRecord
  2
STANDARD
 70
     0
  3

  4

  5

  6

  7

 40
0.0
 41
2.5
 42
0.625
 43
3.75
 44
1.25
 45
0.0
 46
0.0
 47
0.0
 48
0.0
140
2.5
141
2.5
142
0.0
143
0.03937007874016
144
1.0
145
0.0
146
1.0
147
0.625
 71
     0
 72
     0
 73
     0
 74
     0
 75
     0
 76
     0
 77
     1
 78
     8
170
     0
171
     3
172
     1
173
     0
174
     0
175
     0
176
     0
177
     0
178
     0
270
     2
271
     2
272
     2
273
     2
274
     3
340
71
275
     0
280
     0
281
     0
282
     0
283
     0
284
     8
285
     0
286
     0
287
     3
288
     0
  0
ENDTAB
  0
TABLE
  2
BLOCK_RECORD
  5
A01
330
0
100
AcDbSymbolTable
  70
5
  0
BLOCK_RECORD
  5
A02
330
A01
100
AcDbSymbolTableRecord
100
AcDbBlockTableRecord
  2
*MODEL_SPACE
  0
BLOCK_RECORD
  5
A03
330
A01
100
AcDbSymbolTableRecord
100
AcDbBlockTableRecord
  2
*PAPER_SPACE
  0
ENDTAB
  0
ENDSEC
  0
SECTION
  2
BLOCKS
  0
BLOCK
  5
A04
330
A02
100
AcDbEntity
  8
0
100
AcDbBlockBegin
  2
*MODEL_SPACE
 70
   0
 10
0
 20
0
 30
0
  3
*MODEL_SPACE
  1
 
  0
ENDBLK
  5
A05
330
A02
100
AcDbEntity
  8
0
100
AcDbBlockEnd
  0
BLOCK
  5
A06
330
A03
100
AcDbEntity
 67
1
  8
0
100
AcDbBlockBegin
  2
*PAPER_SPACE
 70
   0
 10
0
 20
0
 30
0
  3
*PAPER_SPACE
  1
 
  0
ENDBLK
  5
A07
330
A03
100
AcDbEntity
 67
    1
  8
0
100
AcDbBlockEnd
  0
ENDSEC
  0
SECTION
  2
ENTITIES
  0
LINE
  5
A08
330
A02
100
AcDbEntity
  8
View
100
AcDbLine
 10
15.705729167
 20
202.476562500
 30
0.000000000
 11
15.705729167
 21
204.476562500
 31
0.000000000
  0
LINE
  5
A09
330
A02
100
AcDbEntity
  8
View
100
AcDbLine
 10
15.705729167
 20
202.476562500
 30
0.000000000
 11
7.705729167
 21
202.476562500
 31
0.000000000
  0
LINE
  5
A0A
330
A02
100
AcDbEntity
  8
View
100
AcDbLine
 10
15.705729167
 20
204.476562500
 30
0.000000000
 11
69.705729167
 21
204.476562500
 31
0.000000000
  0
LINE
  5
A0B
330
A02
100
AcDbEntity
  8
View
100
AcDbLine
 10
7.705729167
 20
202.476562500
 30
0.000000000
 11
7.705729167
 21
196.476562500
 31
0.000000000
  0
LINE
  5
A0C
330
A02
100
AcDbEntity
  8
View
100
AcDbLine
 10
69.705729167
 20
204.476562500
 30
0.000000000
 11
69.705729167
 21
202.476562500
 31
0.000000000
  0
LINE
  5
A0D
330
A02
100
AcDbEntity
  8
View
100
AcDbLine
 10
7.705729167
 20
196.476562500
 30
0.000000000
 11
5.705729167
 21
196.476562500
 31
0.000000000
  0
LINE
  5
A0E
330
A02
100
AcDbEntity
  8
View
100
AcDbLine
 10
69.705729167
 20
202.476562500
 30
0.000000000
 11
77.705729167
 21
202.476562500
 31
0.000000000
  0
LINE
  5
A0F
330
A02
100
AcDbEntity
  8
View
100
AcDbLine
 10
5.705729167
 20
140.476562500
 30
0.000000000
 11
5.705729167
 21
196.476562500
 31
0.000000000
  0
LINE
  5
A10
330
A02
100
AcDbEntity
  8
View
100
AcDbLine
 10
77.705729167
 20
202.476562500
 30
0.000000000
 11
77.705729167
 21
196.476562500
 31
0.000000000
  0
LINE
  5
A11
330
A02
100
AcDbEntity
  8
View
100
AcDbLine
 10
7.705729167
 20
140.476562500
 30
0.000000000
 11
5.705729167
 21
140.476562500
 31
0.000000000
  0
LINE
  5
A12
330
A02
100
AcDbEntity
  8
View
100
AcDbLine
 10
77.705729167
 20
196.476562500
 30
0.000000000
 11
71.705729167
 21
196.476562500
 31
0.000000000
  0
LINE
  5
A13
330
A02
100
AcDbEntity
  8
View
100
AcDbLine
 10
7.705729167
 20
134.476562500
 30
0.000000000
 11
7.705729167
 21
140.476562500
 31
0.000000000
  0
LINE
  5
A14
330
A02
100
AcDbEntity
  8
View
100
AcDbLine
 10
71.705729167
 20
196.476562500
 30
0.000000000
 11
71.705729167
 21
186.476562500
 31
0.000000000
  0
LINE
  5
A15
330
A02
100
AcDbEntity
  8
View
100
AcDbLine
 10
7.705729167
 20
134.476562500
 30
0.000000000
 11
15.705729167
 21
134.476562500
 31
0.000000000
  0
LINE
  5
A16
330
A02
100
AcDbEntity
  8
View
100
AcDbLine
 10
71.705729167
 20
186.476562500
 30
0.000000000
 11
79.705729167
 21
186.476562500
 31
0.000000000
  0
LINE
  5
A17
330
A02
100
AcDbEntity
  8
View
100
AcDbLine
 10
15.705729167
 20
134.476562500
 30
0.000000000
 11
15.705729167
 21
132.476562500
 31
0.000000000
  0
LINE
  5
A18
330
A02
100
AcDbEntity
  8
View
100
AcDbLine
 10
79.705729167
 20
186.476562500
 30
0.000000000
 11
79.705729167
 21
140.476562500
 31
0.000000000
  0
LINE
  5
A19
330
A02
100
AcDbEntity
  8
View
100
AcDbLine
 10
15.705729167
 20
132.476562500
 30
0.000000000
 11
69.705729167
 21
132.476562500
 31
0.000000000
  0
LINE
  5
A1A
330
A02
100
AcDbEntity
  8
View
100
AcDbLine
 10
79.705729167
 20
140.476562500
 30
0.000000000
 11
77.705729167
 21
140.476562500
 31
0.000000000
  0
LINE
  5
A1B
330
A02
100
AcDbEntity
  8
View
100
AcDbLine
 10
69.705729167
 20
132.476562500
 30
0.000000000
 11
69.705729167
 21
134.476562500
 31
0.000000000
  0
LINE
  5
A1C
330
A02
100
AcDbEntity
  8
View
100
AcDbLine
 10
77.705729167
 20
140.476562500
 30
0.000000000
 11
77.705729167
 21
134.476562500
 31
0.000000000
  0
LINE
  5
A1D
330
A02
100
AcDbEntity
  8
View
100
AcDbLine
 10
69.705729167
 20
134.476562500
 30
0.000000000
 11
77.705729167
 21
134.476562500
 31
0.000000000
  0
CIRCLE
  5
A1E
330
A02
100
AcDbEntity
  8
View
100
AcDbCircle
 10
17.705729167
 20
167.476562500
 30
0.000000000
 40
2.250000000
  0
LINE
  5
A1F
330
A02
100
AcDbEntity
  8
View
100
AcDbLine
 10
32.705729167
 20
191.476562500
 30
0.000000000
 11
30.705729167
 21
191.476562500
 31
0.000000000
  0
LINE
  5
A20
330
A02
100
AcDbEntity
  8
View
100
AcDbLine
 10
32.705729167
 20
170.476562500
 30
0.000000000
 11
32.705729167
 21
191.476562500
 31
0.000000000
  0
LINE
  5
A21
330
A02
100
AcDbEntity
  8
View
100
AcDbLine
 10
30.705729167
 20
170.476562500
 30
0.000000000
 11
32.705729167
 21
170.476562500
 31
0.000000000
  0
LINE
  5
A22
330
A02
100
AcDbEntity
  8
View
100
AcDbLine
 10
30.705729167
 20
191.476562500
 30
0.000000000
 11
30.705729167
 21
170.476562500
 31
0.000000000
  0
LINE
  5
A23
330
A02
100
AcDbEntity
  8
View
100
AcDbLine
 10
36.705729167
 20
134.476562500
 30
0.000000000
 11
48.705729167
 21
134.476562500
 31
0.000000000
  0
LINE
  5
A24
330
A02
100
AcDbEntity
  8
View
100
AcDbLine
 10
36.705729167
 20
153.476562500
 30
0.000000000
 11
36.705729167
 21
134.476562500
 31
0.000000000
  0
LINE
  5
A25
330
A02
100
AcDbEntity
  8
View
100
AcDbLine
 10
48.705729167
 20
153.476562500
 30
0.000000000
 11
36.705729167
 21
153.476562500
 31
0.000000000
  0
LINE
  5
A26
330
A02
100
AcDbEntity
  8
View
100
AcDbLine
 10
48.705729167
 20
134.476562500
 30
0.000000000
 11
48.705729167
 21
153.476562500
 31
0.000000000
  0
LINE
  5
A27
330
A02
100
AcDbEntity
  8
View
100
AcDbLine
 10
54.705729167
 20
170.476562500
 30
0.000000000
 11
54.705729167
 21
191.476562500
 31
0.000000000
  0
LINE
  5
A28
330
A02
100
AcDbEntity
  8
View
100
AcDbLine
 10
52.705729167
 20
170.476562500
 30
0.000000000
 11
54.705729167
 21
170.476562500
 31
0.000000000
  0
LINE
  5
A29
330
A02
100
AcDbEntity
  8
View
100
AcDbLine
 10
52.705729167
 20
191.476562500
 30
0.000000000
 11
52.705729167
 21
170.476562500
 31
0.000000000
  0
LINE
  5
A2A
330
A02
100
AcDbEntity
  8
View
100
AcDbLine
 10
54.705729167
 20
191.476562500
 30
0.000000000
 11
52.705729167
 21
191.476562500
 31
0.000000000
  0
LINE
  5
A2B
330
A02
100
AcDbEntity
  8
View001
100
AcDbLine
 10
95.051432292
 20
202.476562500
 30
0.000000000
 11
95.051432292
 21
204.476562500
 31
0.000000000
  0
LINE
  5
A2C
330
A02
100
AcDbEntity
  8
View001
100
AcDbLine
 10
95.051432292
 20
202.476562500
 30
0.000000000
 11
87.051432292
 21
202.476562500
 31
0.000000000
  0
LINE
  5
A2D
330
A02
100
AcDbEntity
  8
View001
100
AcDbLine
 10
95.051432292
 20
204.476562500
 30
0.000000000
 11
149.051432292
 21
204.476562500
 31
0.000000000
  0
LINE
  5
A2E
330
A02
100
AcDbEntity
  8
View001
100
AcDbLine
 10
87.051432292
 20
202.476562500
 30
0.000000000
 11
87.051432292
 21
196.476562500
 31
0.000000000
  0
LINE
  5
A2F
330
A02
100
AcDbEntity
  8
View001
100
AcDbLine
 10
149.051432292
 20
204.476562500
 30
0.000000000
 11
149.051432292
 21
202.476562500
 31
0.000000000
  0
LINE
  5
A30
330
A02
100
AcDbEntity
  8
View001
100
AcDbLine
 10
85.051432292
 20
196.476562500
 30
0.000000000
 11
87.051432292
 21
196.476562500
 31
0.000000000
  0
LINE
  5
A31
330
A02
100
AcDbEntity
  8
View001
100
AcDbLine
 10
149.051432292
 20
202.476562500
 30
0.000000000
 11
157.051432292
 21
202.476562500
 31
0.000000000
  0
LINE
  5
A32
330
A02
100
AcDbEntity
  8
View001
100
AcDbLine
 10
85.051432292
 20
140.476562500
 30
0.000000000
 11
85.051432292
 21
196.476562500
 31
0.000000000
  0
LINE
  5
A33
330
A02
100
AcDbEntity
  8
View001
100
AcDbLine
 10
157.051432292
 20
202.476562500
 30
0.000000000
 11
157.051432292
 21
196.476562500
 31
0.000000000
  0
LINE
  5
A34
330
A02
100
AcDbEntity
  8
View001
100
AcDbLine
 10
87.051432292
 20
140.476562500
 30
0.000000000
 11
85.051432292
 21
140.476562500
 31
0.000000000
  0
LINE
  5
A35
330
A02
100
AcDbEntity
  8
View001
100
AcDbLine
 10
157.051432292
 20
196.476562500
 30
0.000000000
 11
151.051432292
 21
196.476562500
 31
0.000000000
  0
LINE
  5
A36
330
A02
100
AcDbEntity
  8
View001
100
AcDbLine
 10
87.051432292
 20
134.476562500
 30
0.000000000
 11
87.051432292
 21
140.476562500
 31
0.000000000
  0
LINE
  5
A37
330
A02
100
AcDbEntity
  8
View001
100
AcDbLine
 10
151.051432292
 20
196.476562500
 30
0.000000000
 11
151.051432292
 21
186.476562500
 31
0.000000000
  0
LINE
  5
A38
330
A02
100
AcDbEntity
  8
View001
100
AcDbLine
 10
87.051432292
 20
134.476562500
 30
0.000000000
 11
95.051432292
 21
134.476562500
 31
0.000000000
  0
LINE
  5
A39
330
A02
100
AcDbEntity
  8
View001
100
AcDbLine
 10
151.051432292
 20
186.476562500
 30
0.000000000
 11
159.051432292
 21
186.476562500
 31
0.000000000
  0
LINE
  5
A3A
330
A02
100
AcDbEntity
  8
View001
100
AcDbLine
 10
95.051432292
 20
134.476562500
 30
0.000000000
 11
95.051432292
 21
132.476562500
 31
0.000000000
  0
LINE
  5
A3B
330
A02
100
AcDbEntity
  8
View001
100
AcDbLine
 10
159.051432292
 20
186.476562500
 30
0.000000000
 11
159.051432292
 21
140.476562500
 31
0.000000000
  0
LINE
  5
A3C
330
A02
100
AcDbEntity
  8
View001
100
AcDbLine
 10
95.051432292
 20
132.476562500
 30
0.000000000
 11
149.051432292
 21
132.476562500
 31
0.000000000
  0
LINE
  5
A3D
330
A02
100
AcDbEntity
  8
View001
100
AcDbLine
 10
159.051432292
 20
140.476562500
 30
0.000000000
 11
157.051432292
 21
140.476562500
 31
0.000000000
  0
LINE
  5
A3E
330
A02
100
AcDbEntity
  8
View001
100
AcDbLine
 10
149.051432292
 20
132.476562500
 30
0.000000000
 11
149.051432292
 21
134.476562500
 31
0.000000000
  0
LINE
  5
A3F
330
A02
100
AcDbEntity
  8
View001
100
AcDbLine
 10
157.051432292
 20
140.476562500
 30
0.000000000
 11
157.051432292
 21
134.476562500
 31
0.000000000
  0
LINE
  5
A40
330
A02
100
AcDbEntity
  8
View001
100
AcDbLine
 10
149.051432292
 20
134.476562500
 30
0.000000000
 11
157.051432292
 21
134.476562500
 31
0.000000000
  0
LINE
  5
A41
330
A02
100
AcDbEntity
  8
View001
100
AcDbLine
 10
126.301432292
 20
189.476562500
 30
0.000000000
 11
117.801432292
 21
189.476562500
 31
0.000000000
  0
LINE
  5
A42
330
A02
100
AcDbEntity
  8
View001
100
AcDbLine
 10
126.301432292
 20
180.976562500
 30
0.000000000
 11
126.301432292
 21
189.476562500
 31
0.000000000
  0
LINE
  5
A43
330
A02
100
AcDbEntity
  8
View001
100
AcDbLine
 10
117.801432292
 20
180.976562500
 30
0.000000000
 11
126.301432292
 21
180.976562500
 31
0.000000000
  0
LINE
  5
A44
330
A02
100
AcDbEntity
  8
View001
100
AcDbLine
 10
117.801432292
 20
189.476562500
 30
0.000000000
 11
117.801432292
 21
180.976562500
 31
0.000000000
  0
LINE
  5
A45
330
A02
100
AcDbEntity
  8
View002
100
AcDbLine
 10
168.466145833
 20
116.592660388
 30
0.000000000
 11
168.466145833
 21
163.307554541
 31
0.000000000
  0
LINE
  5
A46
330
A02
100
AcDbEntity
  8
View002
100
AcDbLine
 10
170.466145833
 20
116.592660388
 30
0.000000000
 11
168.466145833
 21
116.592660388
 31
0.000000000
  0
LINE
  5
A47
330
A02
100
AcDbEntity
  8
View002
100
AcDbLine
 10
170.466145833
 20
110.592660388
 30
0.000000000
 11
170.466145833
 21
116.592660388
 31
0.000000000
  0
LINE
  5
A48
330
A02
100
AcDbEntity
  8
View002
100
AcDbLine
 10
170.466145833
 20
110.592660388
 30
0.000000000
 11
178.466145833
 21
110.592660388
 31
0.000000000
  0
LINE
  5
A49
330
A02
100
AcDbEntity
  8
View002
100
AcDbLine
 10
178.466145833
 20
110.592660388
 30
0.000000000
 11
178.466145833
 21
108.592660388
 31
0.000000000
  0
LINE
  5
A4A
330
A02
100
AcDbEntity
  8
View002
100
AcDbLine
 10
178.466145833
 20
108.592660388
 30
0.000000000
 11
232.466145833
 21
108.592660388
 31
0.000000000
  0
LINE
  5
A4B
330
A02
100
AcDbEntity
  8
View002
100
AcDbLine
 10
232.466145833
 20
108.592660388
 30
0.000000000
 11
232.466145833
 21
110.592660388
 31
0.000000000
  0
LINE
  5
A4C
330
A02
100
AcDbEntity
  8
View002
100
AcDbLine
 10
232.466145833
 20
110.592660388
 30
0.000000000
 11
240.466145833
 21
110.592660388
 31
0.000000000
  0
LINE
  5
A4D
330
A02
100
AcDbEntity
  8
View002
100
AcDbLine
 10
240.466145833
 20
116.592660388
 30
0.000000000
 11
240.466145833
 21
110.592660388
 31
0.000000000
  0
LINE
  5
A4E
330
A02
100
AcDbEntity
  8
View002
100
AcDbLine
 10
242.466145833
 20
116.592660388
 30
0.000000000
 11
240.466145833
 21
116.592660388
 31
0.000000000
  0
LINE
  5
A4F
330
A02
100
AcDbEntity
  8
View002
100
AcDbLine
 10
242.466145833
 20
126.077766235
 30
0.000000000
 11
242.466145833
 21
116.592660388
 31
0.000000000
  0
LINE
  5
A50
330
A02
100
AcDbEntity
  8
View002
100
AcDbLine
 10
242.466145833
 20
126.077766235
 30
0.000000000
 11
239.534400066
 21
126.077766235
 31
0.000000000
  0
LINE
  5
A51
330
A02
100
AcDbEntity
  8
View002
100
AcDbLine
 10
239.534400066
 20
126.077766235
 30
0.000000000
 11
225.743761625
 21
111.592660388
 31
0.000000000
  0
LINE
  5
A52
330
A02
100
AcDbEntity
  8
View002
100
AcDbLine
 10
171.424614700
 20
163.307554541
 30
0.000000000
 11
225.743761625
 21
111.592660388
 31
0.000000000
  0
LINE
  5
A53
330
A02
100
AcDbEntity
  8
View002
100
AcDbLine
 10
171.424614700
 20
163.307554541
 30
0.000000000
 11
168.466145833
 21
163.307554541
 31
0.000000000
  0
CIRCLE
  5
A54
330
A02
100
AcDbEntity
  8
View002
100
AcDbCircle
 10
180.466145833
 20
143.592660388
 30
0.000000000
 40
3.500000000
  0
LINE
  5
A55
330
A02
100
AcDbEntity
  8
View004
100
AcDbLine
 10
85.220998937
 20
3.895833333
 30
0.000000000
 11
85.220998937
 21
5.895833333
 31
0.000000000
  0
LINE
  5
A56
330
A02
100
AcDbEntity
  8
View004
100
AcDbLine
 10
85.220998937
 20
3.895833333
 30
0.000000000
 11
7.220998937
 21
3.895833333
 31
0.000000000
  0
LINE
  5
A57
330
A02
100
AcDbEntity
  8
View004
100
AcDbLine
 10
7.220998937
 20
75.895833333
 30
0.000000000
 11
7.220998937
 21
3.895833333
 31
0.000000000
  0
LINE
  5
A58
330
A02
100
AcDbEntity
  8
View004
100
AcDbLine
 10
7.220998937
 20
75.895833333
 30
0.000000000
 11
85.220998937
 21
75.895833333
 31
0.000000000
  0
LINE
  5
A59
330
A02
100
AcDbEntity
  8
View004
100
AcDbLine
 10
85.220998937
 20
75.895833333
 30
0.000000000
 11
85.220998937
 21
73.895833333
 31
0.000000000
  0
LINE
  5
A5A
330
A02
100
AcDbEntity
  8
View004
100
AcDbLine
 10
137.220998937
 20
73.895833333
 30
0.000000000
 11
85.220998937
 21
73.895833333
 31
0.000000000
  0
ARC
  5
A5B
330
A02
100
AcDbEntity
  8
View004
100
AcDbCircle
 10
137.220998937
 20
65.895833333
 30
0.000000000
 40
8.000000000
100
AcDbArc
 50
0.000000000
 51
90.000000000
  0
LINE
  5
A5C
330
A02
100
AcDbEntity
  8
View004
100
AcDbLine
 10
145.220998937
 20
13.895833333
 30
0.000000000
 11
145.220998937
 21
65.895833333
 31
0.000000000
  0
ARC
  5
A5D
330
A02
100
AcDbEntity
  8
View004
100
AcDbCircle
 10
137.220998937
 20
13.895833333
 30
0.000000000
 40
8.000000000
100
AcDbArc
 50
-90.000000000
 51
0.000000000
  0
LINE
  5
A5E
330
A02
100
AcDbEntity
  8
View004
100
AcDbLine
 10
85.220998937
 20
5.895833333
 30
0.000000000
 11
137.220998937
 21
5.895833333
 31
0.000000000
  0
LINE
  5
A5F
330
A02
100
AcDbEntity
  8
View004
100
AcDbLine
 10
27.220998937
 20
65.895833333
 30
0.000000000
 11
77.220998937
 21
65.895833333
 31
0.000000000
  0
ARC
  5
A60
330
A02
100
AcDbEntity
  8
View004
100
AcDbCircle
 10
77.220998937
 20
57.895833333
 30
0.000000000
 40
8.000000000
100
AcDbArc
 50
0.000000000
 51
90.000000000
  0
LINE
  5
A61
330
A02
100
AcDbEntity
  8
View004
100
AcDbLine
 10
85.220998937
 20
57.895833333
 30
0.000000000
 11
85.220998937
 21
19.895833333
 31
0.000000000
  0
ARC
  5
A62
330
A02
100
AcDbEntity
  8
View004
100
AcDbCircle
 10
77.220998937
 20
19.895833333
 30
0.000000000
 40
8.000000000
100
AcDbArc
 50
-90.000000000
 51
0.000000000
  0
LINE
  5
A63
330
A02
100
AcDbEntity
  8
View004
100
AcDbLine
 10
77.220998937
 20
11.895833333
 30
0.000000000
 11
27.220998937
 21
11.895833333
 31
0.000000000
  0
LINE
  5
A64
330
A02
100
AcDbEntity
  8
View004
100
AcDbLine
 10
27.220998937
 20
11.895833333
 30
0.000000000
 11
27.220998937
 21
65.895833333
 31
0.000000000
  0
LINE
  5
A65
330
A02
100
AcDbEntity
  8
View004
100
AcDbLine
 10
93.220998937
 20
57.895833333
 30
0.000000000
 11
95.220998937
 21
57.895833333
 31
0.000000000
  0
LINE
  5
A66
330
A02
100
AcDbEntity
  8
View004
100
AcDbLine
 10
95.220998937
 20
57.895833333
 30
0.000000000
 11
95.220998937
 21
11.895833333
 31
0.000000000
  0
LINE
  5
A67
330
A02
100
AcDbEntity
  8
View004
100
AcDbLine
 10
95.220998937
 20
11.895833333
 30
0.000000000
 11
93.220998937
 21
11.895833333
 31
0.000000000
  0
LINE
  5
A68
330
A02
100
AcDbEntity
  8
View004
100
AcDbLine
 10
93.220998937
 20
11.895833333
 30
0.000000000
 11
93.220998937
 21
57.895833333
 31
0.000000000
  0
LINE
  5
A69
330
A02
100
AcDbEntity
  8
View004
100
AcDbLine
 10
101.220998937
 20
57.895833333
 30
0.000000000
 11
101.220998937
 21
11.895833333
 31
0.000000000
  0
LINE
  5
A6A
330
A02
100
AcDbEntity
  8
View004
100
AcDbLine
 10
101.220998937
 20
11.895833333
 30
0.000000000
 11
103.220998937
 21
11.895833333
 31
0.000000000
  0
LINE
  5
A6B
330
A02
100
AcDbEntity
  8
View004
100
AcDbLine
 10
103.220998937
 20
11.895833333
 30
0.000000000
 11
103.220998937
 21
57.895833333
 31
0.000000000
  0
LINE
  5
A6C
330
A02
100
AcDbEntity
  8
View004
100
AcDbLine
 10
103.220998937
 20
57.895833333
 30
0.000000000
 11
101.220998937
 21
57.895833333
 31
0.000000000
  0
LINE
  5
A6D
330
A02
100
AcDbEntity
  8
View004
100
AcDbLine
 10
135.220998937
 20
54.395833333
 30
0.000000000
 11
135.220998937
 21
11.895833333
 31
0.000000000
  0
LINE
  5
A6E
330
A02
100
AcDbEntity
  8
View004
100
AcDbLine
 10
135.220998937
 20
11.895833333
 30
0.000000000
 11
133.220998937
 21
11.895833333
 31
0.000000000
  0
LINE
  5
A6F
330
A02
100
AcDbEntity
  8
View004
100
AcDbLine
 10
133.220998937
 20
11.895833333
 30
0.000000000
 11
133.220998937
 21
54.395833333
 31
0.000000000
  0
LINE
  5
A70
330
A02
100
AcDbEntity
  8
View004
100
AcDbLine
 10
133.220998937
 20
54.395833333
 30
0.000000000
 11
135.220998937
 21
54.395833333
 31
0.000000000
  0
LINE
  5
A71
330
A02
100
AcDbEntity
  8
View004
100
AcDbLine
 10
124.220998937
 20
21.395833333
 30
0.000000000
 11
124.220998937
 21
11.895833333
 31
0.000000000
  0
LINE
  5
A72
330
A02
100
AcDbEntity
  8
View004
100
AcDbLine
 10
124.220998937
 20
11.895833333
 30
0.000000000
 11
122.220998937
 21
11.895833333
 31
0.000000000
  0
LINE
  5
A73
330
A02
100
AcDbEntity
  8
View004
100
AcDbLine
 10
122.220998937
 20
11.895833333
 30
0.000000000
 11
122.220998937
 21
21.395833333
 31
0.000000000
  0
LINE
  5
A74
330
A02
100
AcDbEntity
  8
View004
100
AcDbLine
 10
122.220998937
 20
21.395833333
 30
0.000000000
 11
124.220998937
 21
21.395833333
 31
0.000000000
  0
ARC
  5
A75
330
A02
100
AcDbEntity
  8
View004
100
AcDbCircle
 10
35.220998937
 20
70.895833333
 30
0.000000000
 40
1.000000000
100
AcDbArc
 50
-90.000000000
 51
90.000000000
  0
LINE
  5
A76
330
A02
100
AcDbEntity
  8
View004
100
AcDbLine
 10
35.220998937
 20
69.895833333
 30
0.000000000
 11
31.220998937
 21
69.895833333
 31
0.000000000
  0
ARC
  5
A77
330
A02
100
AcDbEntity
  8
View004
100
AcDbCircle
 10
31.220998937
 20
70.895833333
 30
0.000000000
 40
1.000000000
100
AcDbArc
 50
90.000000000
 51
-90.000000000
  0
LINE
  5
A78
330
A02
100
AcDbEntity
  8
View004
100
AcDbLine
 10
35.220998937
 20
71.895833333
 30
0.000000000
 11
31.220998937
 21
71.895833333
 31
0.000000000
  0
ARC
  5
A79
330
A02
100
AcDbEntity
  8
View004
100
AcDbCircle
 10
71.220998937
 20
70.895833333
 30
0.000000000
 40
1.000000000
100
AcDbArc
 50
-90.000000000
 51
90.000000000
  0
LINE
  5
A7A
330
A02
100
AcDbEntity
  8
View004
100
AcDbLine
 10
71.220998937
 20
69.895833333
 30
0.000000000
 11
67.220998937
 21
69.895833333
 31
0.000000000
  0
ARC
  5
A7B
330
A02
100
AcDbEntity
  8
View004
100
AcDbCircle
 10
67.220998937
 20
70.895833333
 30
0.000000000
 40
1.000000000
100
AcDbArc
 50
90.000000000
 51
-90.000000000
  0
LINE
  5
A7C
330
A02
100
AcDbEntity
  8
View004
100
AcDbLine
 10
71.220998937
 20
71.895833333
 30
0.000000000
 11
67.220998937
 21
71.895833333
 31
0.000000000
  0
CIRCLE
  5
A7D
330
A02
100
AcDbEntity
  8
View004
100
AcDbCircle
 10
17.220998937
 20
18.895833333
 30
0.000000000
 40
1.000000000
  0
CIRCLE
  5
A7E
330
A02
100
AcDbEntity
  8
View004
100
AcDbCircle
 10
17.220998937
 20
58.895833333
 30
0.000000000
 40
1.000000000
  0
LINE
  5
A7F
330
A02
100
AcDbEntity
  8
View005
100
AcDbLine
 10
231.067324729
 20
3.895833333
 30
0.000000000
 11
231.067324729
 21
5.895833333
 31
0.000000000
  0
LINE
  5
A80
330
A02
100
AcDbEntity
  8
View005
100
AcDbLine
 10
231.067324729
 20
3.895833333
 30
0.000000000
 11
153.067324729
 21
3.895833333
 31
0.000000000
  0
LINE
  5
A81
330
A02
100
AcDbEntity
  8
View005
100
AcDbLine
 10
153.067324729
 20
75.895833333
 30
0.000000000
 11
153.067324729
 21
3.895833333
 31
0.000000000
  0
LINE
  5
A82
330
A02
100
AcDbEntity
  8
View005
100
AcDbLine
 10
153.067324729
 20
75.895833333
 30
0.000000000
 11
231.067324729
 21
75.895833333
 31
0.000000000
  0
LINE
  5
A83
330
A02
100
AcDbEntity
  8
View005
100
AcDbLine
 10
231.067324729
 20
75.895833333
 30
0.000000000
 11
231.067324729
 21
73.895833333
 31
0.000000000
  0
LINE
  5
A84
330
A02
100
AcDbEntity
  8
View005
100
AcDbLine
 10
283.067324729
 20
73.895833333
 30
0.000000000
 11
231.067324729
 21
73.895833333
 31
0.000000000
  0
ARC
  5
A85
330
A02
100
AcDbEntity
  8
View005
100
AcDbCircle
 10
283.067324729
 20
65.895833333
 30
0.000000000
 40
8.000000000
100
AcDbArc
 50
0.000000000
 51
90.000000000
  0
LINE
  5
A86
330
A02
100
AcDbEntity
  8
View005
100
AcDbLine
 10
291.067324729
 20
13.895833333
 30
0.000000000
 11
291.067324729
 21
65.895833333
 31
0.000000000
  0
ARC
  5
A87
330
A02
100
AcDbEntity
  8
View005
100
AcDbCircle
 10
283.067324729
 20
13.895833333
 30
0.000000000
 40
8.000000000
100
AcDbArc
 50
-90.000000000
 51
0.000000000
  0
LINE
  5
A88
330
A02
100
AcDbEntity
  8
View005
100
AcDbLine
 10
231.067324729
 20
5.895833333
 30
0.000000000
 11
283.067324729
 21
5.895833333
 31
0.000000000
  0
LINE
  5
A89
330
A02
100
AcDbEntity
  8
View005
100
AcDbLine
 10
173.067324729
 20
65.895833333
 30
0.000000000
 11
223.067324729
 21
65.895833333
 31
0.000000000
  0
ARC
  5
A8A
330
A02
100
AcDbEntity
  8
View005
100
AcDbCircle
 10
223.067324729
 20
57.895833333
 30
0.000000000
 40
8.000000000
100
AcDbArc
 50
0.000000000
 51
90.000000000
  0
LINE
  5
A8B
330
A02
100
AcDbEntity
  8
View005
100
AcDbLine
 10
231.067324729
 20
57.895833333
 30
0.000000000
 11
231.067324729
 21
19.895833333
 31
0.000000000
  0
ARC
  5
A8C
330
A02
100
AcDbEntity
  8
View005
100
AcDbCircle
 10
223.067324729
 20
19.895833333
 30
0.000000000
 40
8.000000000
100
AcDbArc
 50
-90.000000000
 51
0.000000000
  0
LINE
  5
A8D
330
A02
100
AcDbEntity
  8
View005
100
AcDbLine
 10
223.067324729
 20
11.895833333
 30
0.000000000
 11
173.067324729
 21
11.895833333
 31
0.000000000
  0
LINE
  5
A8E
330
A02
100
AcDbEntity
  8
View005
100
AcDbLine
 10
173.067324729
 20
11.895833333
 30
0.000000000
 11
173.067324729
 21
65.895833333
 31
0.000000000
  0
LINE
  5
A8F
330
A02
100
AcDbEntity
  8
View005
100
AcDbLine
 10
239.067324729
 20
67.895833333
 30
0.000000000
 11
241.067324729
 21
67.895833333
 31
0.000000000
  0
LINE
  5
A90
330
A02
100
AcDbEntity
  8
View005
100
AcDbLine
 10
241.067324729
 20
67.895833333
 30
0.000000000
 11
241.067324729
 21
11.895833333
 31
0.000000000
  0
LINE
  5
A91
330
A02
100
AcDbEntity
  8
View005
100
AcDbLine
 10
241.067324729
 20
11.895833333
 30
0.000000000
 11
239.067324729
 21
11.895833333
 31
0.000000000
  0
LINE
  5
A92
330
A02
100
AcDbEntity
  8
View005
100
AcDbLine
 10
239.067324729
 20
11.895833333
 30
0.000000000
 11
239.067324729
 21
67.895833333
 31
0.000000000
  0
LINE
  5
A93
330
A02
100
AcDbEntity
  8
View005
100
AcDbLine
 10
247.067324729
 20
67.895833333
 30
0.000000000
 11
247.067324729
 21
11.895833333
 31
0.000000000
  0
LINE
  5
A94
330
A02
100
AcDbEntity
  8
View005
100
AcDbLine
 10
247.067324729
 20
11.895833333
 30
0.000000000
 11
249.067324729
 21
11.895833333
 31
0.000000000
  0
LINE
  5
A95
330
A02
100
AcDbEntity
  8
View005
100
AcDbLine
 10
249.067324729
 20
11.895833333
 30
0.000000000
 11
249.067324729
 21
67.895833333
 31
0.000000000
  0
LINE
  5
A96
330
A02
100
AcDbEntity
  8
View005
100
AcDbLine
 10
249.067324729
 20
67.895833333
 30
0.000000000
 11
247.067324729
 21
67.895833333
 31
0.000000000
  0
LINE
  5
A97
330
A02
100
AcDbEntity
  8
View005
100
AcDbLine
 10
270.067324729
 20
58.595833333
 30
0.000000000
 11
270.067324729
 21
11.895833333
 31
0.000000000
  0
LINE
  5
A98
330
A02
100
AcDbEntity
  8
View005
100
AcDbLine
 10
270.067324729
 20
11.895833333
 30
0.000000000
 11
268.067324729
 21
11.895833333
 31
0.000000000
  0
LINE
  5
A99
330
A02
100
AcDbEntity
  8
View005
100
AcDbLine
 10
268.067324729
 20
11.895833333
 30
0.000000000
 11
268.067324729
 21
58.595833333
 31
0.000000000
  0
LINE
  5
A9A
330
A02
100
AcDbEntity
  8
View005
100
AcDbLine
 10
268.067324729
 20
58.595833333
 30
0.000000000
 11
270.067324729
 21
58.595833333
 31
0.000000000
  0
LINE
  5
A9B
330
A02
100
AcDbEntity
  8
View005
100
AcDbLine
 10
281.067324729
 20
19.895833333
 30
0.000000000
 11
281.067324729
 21
11.895833333
 31
0.000000000
  0
LINE
  5
A9C
330
A02
100
AcDbEntity
  8
View005
100
AcDbLine
 10
281.067324729
 20
11.895833333
 30
0.000000000
 11
279.067324729
 21
11.895833333
 31
0.000000000
  0
LINE
  5
A9D
330
A02
100
AcDbEntity
  8
View005
100
AcDbLine
 10
279.067324729
 20
11.895833333
 30
0.000000000
 11
279.067324729
 21
19.895833333
 31
0.000000000
  0
LINE
  5
A9E
330
A02
100
AcDbEntity
  8
View005
100
AcDbLine
 10
279.067324729
 20
19.895833333
 30
0.000000000
 11
281.067324729
 21
19.895833333
 31
0.000000000
  0
CIRCLE
  5
A9F
330
A02
100
AcDbEntity
  8
View005
100
AcDbCircle
 10
163.067324729
 20
18.895833333
 30
0.000000000
 40
1.000000000
  0
CIRCLE
  5
AA0
330
A02
100
AcDbEntity
  8
View005
100
AcDbCircle
 10
163.067324729
 20
58.895833333
 30
0.000000000
 40
1.000000000
  0
LINE
  5
AA1
330
A02
100
AcDbEntity
  8
View008
100
AcDbLine
 10
242.648128929
 20
150.499464235
 30
0.000000000
 11
242.648128929
 21
193.402415235
 31
0.000000000
  0
LINE
  5
AA2
330
A02
100
AcDbEntity
  8
View008
100
AcDbLine
 10
242.648128929
 20
193.402415235
 30
0.000000000
 11
240.649093929
 21
193.402415235
 31
0.000000000
  0
LINE
  5
AA3
330
A02
100
AcDbEntity
  8
View008
100
AcDbLine
 10
240.649093929
 20
193.402415235
 30
0.000000000
 11
240.649093929
 21
199.402415235
 31
0.000000000
  0
LINE
  5
AA4
330
A02
100
AcDbEntity
  8
View008
100
AcDbLine
 10
232.649093929
 20
199.402415235
 30
0.000000000
 11
240.649093929
 21
199.402415235
 31
0.000000000
  0
LINE
  5
AA5
330
A02
100
AcDbEntity
  8
View008
100
AcDbLine
 10
232.649093929
 20
201.402415235
 30
0.000000000
 11
232.649093929
 21
199.402415235
 31
0.000000000
  0
LINE
  5
AA6
330
A02
100
AcDbEntity
  8
View008
100
AcDbLine
 10
178.649093929
 20
201.402415235
 30
0.000000000
 11
232.649093929
 21
201.402415235
 31
0.000000000
  0
LINE
  5
AA7
330
A02
100
AcDbEntity
  8
View008
100
AcDbLine
 10
178.649093929
 20
199.402415235
 30
0.000000000
 11
178.649093929
 21
201.402415235
 31
0.000000000
  0
LINE
  5
AA8
330
A02
100
AcDbEntity
  8
View008
100
AcDbLine
 10
170.649093929
 20
199.402415235
 30
0.000000000
 11
178.649093929
 21
199.402415235
 31
0.000000000
  0
LINE
  5
AA9
330
A02
100
AcDbEntity
  8
View008
100
AcDbLine
 10
170.649093929
 20
199.402415235
 30
0.000000000
 11
170.649093929
 21
193.402415235
 31
0.000000000
  0
LINE
  5
AAA
330
A02
100
AcDbEntity
  8
View008
100
AcDbLine
 10
170.649093929
 20
193.402415235
 30
0.000000000
 11
168.649093929
 21
193.402415235
 31
0.000000000
  0
LINE
  5
AAB
330
A02
100
AcDbEntity
  8
View008
100
AcDbLine
 10
168.649093929
 20
193.402415235
 30
0.000000000
 11
168.649093929
 21
185.402415235
 31
0.000000000
  0
LINE
  5
AAC
330
A02
100
AcDbEntity
  8
View008
100
AcDbLine
 10
168.649093929
 20
185.402415235
 30
0.000000000
 11
170.649093929
 21
185.402415235
 31
0.000000000
  0
LINE
  5
AAD
330
A02
100
AcDbEntity
  8
View008
100
AcDbLine
 10
225.310346704
 20
141.431331904
 30
0.000000000
 11
170.649093929
 21
185.402415235
 31
0.000000000
  0
ARC
  5
AAE
330
A02
100
AcDbEntity
  8
View008
100
AcDbCircle
 10
225.529303168
 20
141.703520664
 30
0.000000000
 40
0.349326000
100
AcDbArc
 50
-128.814199202
 51
0.000000000
  0
LINE
  5
AAF
330
A02
100
AcDbEntity
  8
View008
100
AcDbLine
 10
225.878629168
 20
145.017553347
 30
0.000000000
 11
225.878629168
 21
141.703520664
 31
0.000000000
  0
ARC
  5
AB0
330
A02
100
AcDbEntity
  8
View008
100
AcDbCircle
 10
226.628861549
 20
145.017553347
 30
0.000000000
 40
0.750232380
100
AcDbArc
 50
90.000000000
 51
180.000000000
  0
ARC
  5
AB1
330
A02
100
AcDbEntity
  8
View008
100
AcDbCircle
 10
226.628861549
 20
145.017553347
 30
0.000000000
 40
0.750232380
100
AcDbArc
 50
0.000000000
 51
90.000000000
  0
LINE
  5
AB2
330
A02
100
AcDbEntity
  8
View008
100
AcDbLine
 10
227.379093929
 20
140.220744201
 30
0.000000000
 11
227.379093929
 21
145.017553347
 31
0.000000000
  0
ARC
  5
AB3
330
A02
100
AcDbEntity
  8
View008
100
AcDbCircle
 10
228.326072929
 20
140.220744201
 30
0.000000000
 40
0.946979000
100
AcDbArc
 50
180.000000000
 51
-128.814199202
  0
LINE
  5
AB4
330
A02
100
AcDbEntity
  8
View008
100
AcDbLine
 10
232.210851118
 20
135.880367752
 30
0.000000000
 11
227.732509399
 21
139.482874590
 31
0.000000000
  0
ARC
  5
AB5
330
A02
100
AcDbEntity
  8
View008
100
AcDbCircle
 10
233.149093929
 20
137.050709765
 30
0.000000000
 40
1.500000000
100
AcDbArc
 50
-128.718543586
 51
0.000000000
  0
LINE
  5
AB6
330
A02
100
AcDbEntity
  8
View008
100
AcDbLine
 10
234.649093929
 20
137.050709765
 30
0.000000000
 11
234.644470929
 21
150.418664114
 31
0.000000000
  0
LINE
  5
AB7
330
A02
100
AcDbEntity
  8
View008
100
AcDbLine
 10
237.524966971
 20
150.418664114
 30
0.000000000
 11
234.644470929
 21
150.418664114
 31
0.000000000
  0
LINE
  5
AB8
330
A02
100
AcDbEntity
  8
View008
100
AcDbLine
 10
239.336264919
 20
148.804191812
 30
0.000000000
 11
237.524966971
 21
150.418664114
 31
0.000000000
  0
ARC
  5
AB9
330
A02
100
AcDbEntity
  8
View008
100
AcDbCircle
 10
240.136115996
 20
149.701555372
 30
0.000000000
 40
1.202091138
100
AcDbArc
 50
-131.711719199
 51
-90.000000000
  0
LINE
  5
ABA
330
A02
100
AcDbEntity
  8
View008
100
AcDbLine
 10
240.648128929
 20
148.499464235
 30
0.000000000
 11
240.136115996
 21
148.499464235
 31
0.000000000
  0
LINE
  5
ABB
330
A02
100
AcDbEntity
  8
View008
100
AcDbLine
 10
240.648128929
 20
150.499464235
 30
0.000000000
 11
240.648128929
 21
148.499464235
 31
0.000000000
  0
LINE
  5
ABC
330
A02
100
AcDbEntity
  8
View008
100
AcDbLine
 10
242.648128929
 20
150.499464235
 30
0.000000000
 11
240.648128929
 21
150.499464235
 31
0.000000000
  0
ENDSEC
  0
SECTION
  2
OBJECTS
  0
DICTIONARY
  5
F000
330
0
100
AcDbDictionary
  3
ACAD_GROUP
350
F001
  0
DICTIONARY
  5
F001
330
F000
100
AcDbDictionary
  0
ENDSEC
  0
EOF