999
FreeCAD v1.0 39319 (Git)
  0
SECTION
  2
HEADER
  9
$ACADVER
  1
AC1014
  9
$ACADMAINTVER
 70
     9
  9
$DWGCODEPAGE
  3
ANSI_1252
  9
$TEXTSTYLE
  7
STANDARD
  9
$DIMSTYLE
  2
STANDARD
  9
$DIMTXSTY
  7
STANDARD
  9
$CMLSTYLE
  2
STANDARD
  9
$LUNITS
 70
2
  9
$INSUNITS
 70
4
  9
$PEXTMAX
 10
50
 20
50
 30
50
  9
$PEXTMIN
 10
0
 20
0
 30
0
  9
$HANDSEED
  5
FFFF
  0
ENDSEC
  0
SECTION
  2
CLASSES
  0
CLASS
  1
ACDBDICTIONARYWDFLT
  2
AcDbDictionaryWithDefault
  3
ObjectDBX Classes
 90
        0
280
     0
281
     0
  0
CLASS
  1
XRECORD
  2
AcDbXrecord
  3
ObjectDBX Classes
 90
        0
280
     0
281
     0
  0
CLASS
  1
LWPOLYLINE
  2
AcDbPolyline
  3
ObjectDBX Classes
 90
        0
280
     0
281
     1
  0
ENDSEC
  0
SECTION
  2
TABLES
  0
TABLE
  2
VPORT
  5
20
330
0
100
AcDbSymbolTable
 70
     1
  0
VPORT
  5
21
330
20
100
AcDbSymbolTableRecord
100
AcDbViewportTableRecord
  2
*ACTIVE
 70
     0
  0
ENDTAB
  0
TABLE
  2
LTYPE
  5
22
330
0
100
AcDbSymbolTable
 70
     1
  0
LTYPE
  5
23
330
21
100
AcDbSymbolTableRecord
100
AcDbLinetypeTableRecord
  2
BYBLOCK
 70
     0
  3

 72
    65
 73
     0
 40
0.0
  0
LTYPE
  5
24
330
21
100
AcDbSymbolTableRecord
100
AcDbLinetypeTableRecord
  2
BYLAYER
 70
     0
  3

 72
    65
 73
     0
 40
0.0
  0
LTYPE
  5
25
330
21
100
AcDbSymbolTableRecord
100
AcDbLinetypeTableRecord
  2
CONTINUOUS
 70
     0
  3
Solid line
 72
    65
 73
     0
 40
0.0
  0
ENDTAB
  0
TABLE
  2
LAYER
  5
AEF
330
0
100
AcDbSymbolTable
 70
11
  0
LAYER
  5
AF0
330
AEF
100
AcDbSymbolTableRecord
100
AcDbLayerTableRecord
  2
0
 70
   0
 62
   7
  6
CONTINUOUS
  0
LAYER
  5
AF1
330
AEF
100
AcDbSymbolTableRecord
100
AcDbLayerTableRecord
  2
View
 70
    0
 62
    7
  6
CONTINUOUS
  0
LAYER
  5
AF2
330
AEF
100
AcDbSymbolTableRecord
100
AcDbLayerTableRecord
  2
View001
 70
    0
 62
    7
  6
CONTINUOUS
  0
LAYER
  5
AF3
330
AEF
100
AcDbSymbolTableRecord
100
AcDbLayerTableRecord
  2
View004
 70
    0
 62
    7
  6
CONTINUOUS
  0
LAYER
  5
AF4
330
AEF
100
AcDbSymbolTableRecord
100
AcDbLayerTableRecord
  2
View005
 70
    0
 62
    7
  6
CONTINUOUS
  0
LAYER
  5
AF5
330
AEF
100
AcDbSymbolTableRecord
100
AcDbLayerTableRecord
  2
View009
 70
    0
 62
    7
  6
CONTINUOUS
  0
LAYER
  5
AF6
330
AEF
100
AcDbSymbolTableRecord
100
AcDbLayerTableRecord
  2
View010
 70
    0
 62
    7
  6
CONTINUOUS
  0
LAYER
  5
AF7
330
AEF
100
AcDbSymbolTableRecord
100
AcDbLayerTableRecord
  2
View011
 70
    0
 62
    7
  6
CONTINUOUS
  0
LAYER
  5
AF8
330
AEF
100
AcDbSymbolTableRecord
100
AcDbLayerTableRecord
  2
View012
 70
    0
 62
    7
  6
CONTINUOUS
  0
LAYER
  5
AF9
330
AEF
100
AcDbSymbolTableRecord
100
AcDbLayerTableRecord
  2
View013
 70
    0
 62
    7
  6
CONTINUOUS
  0
LAYER
  5
AFA
330
AEF
100
AcDbSymbolTableRecord
100
AcDbLayerTableRecord
  2
View014
 70
    0
 62
    7
  6
CONTINUOUS
  0
ENDTAB
  0
TABLE
  2
STYLE
  5
70
330
0
100
AcDbSymbolTable
 70
     2
  0
STYLE
  5
71
330
70
100
AcDbSymbolTableRecord
100
AcDbTextStyleTableRecord
  2
STANDARD
 70
     0
 40
0.0
 41
1.0
 50
0.0
 71
     0
 42
2.5
  3
arial.ttf
  4

  0
STYLE
  5
72
330
70
100
AcDbSymbolTableRecord
100
AcDbTextStyleTableRecord
  2
ANNOTATIVE
 70
     0
 40
0.0
 41
1.0
 50
0.0
 71
     0
 42
2.5
  3
arial.ttf
  4

  0
ENDTAB
  0
TABLE
  2
VIEW
  5
73
330
0
100
AcDbSymbolTable
 70
     0
  0
ENDTAB
  0
TABLE
  2
UCS
  5
74
330
0
100
AcDbSymbolTable
 70
     0
  0
ENDTAB
  0
TABLE
  2
APPID
  5
75
330
0
100
AcDbSymbolTable
 70
     2
  0
APPID
  5
76
330
75
100
AcDbSymbolTableRecord
100
AcDbRegAppTableRecord
  2
ACAD
 70
     0
  0
APPID
  5
77
330
75
100
AcDbSymbolTableRecord
100
AcDbRegAppTableRecord
  2
ACADANNOTATIVE
 70
     0
  0
ENDTAB
  0
TABLE
  2
DIMSTYLE
  5
78
330
0
100
AcDbSymbolTable
 70
     2
  0
DIMSTYLE
105
79
330
78
100
AcDbSymbolTableRecord
100
AcDbDimStyleTableRecord
  2
STANDARD
 70
     0
  3

  4

  5

  6

  7

 40
0.0
 41
2.5
 42
0.625
 43
3.75
 44
1.25
 45
0.0
 46
0.0
 47
0.0
 48
0.0
140
2.5
141
2.5
142
0.0
143
0.03937007874016
144
1.0
145
0.0
146
1.0
147
0.625
 71
     0
 72
     0
 73
     0
 74
     0
 75
     0
 76
     0
 77
     1
 78
     8
170
     0
171
     3
172
     1
173
     0
174
     0
175
     0
176
     0
177
     0
178
     0
270
     2
271
     2
272
     2
273
     2
274
     3
340
71
275
     0
280
     0
281
     0
282
     0
283
     0
284
     8
285
     0
286
     0
287
     3
288
     0
  0
ENDTAB
  0
TABLE
  2
BLOCK_RECORD
  5
A01
330
0
100
AcDbSymbolTable
  70
5
  0
BLOCK_RECORD
  5
A02
330
A01
100
AcDbSymbolTableRecord
100
AcDbBlockTableRecord
  2
*MODEL_SPACE
  0
BLOCK_RECORD
  5
A03
330
A01
100
AcDbSymbolTableRecord
100
AcDbBlockTableRecord
  2
*PAPER_SPACE
  0
ENDTAB
  0
ENDSEC
  0
SECTION
  2
BLOCKS
  0
BLOCK
  5
A04
330
A02
100
AcDbEntity
  8
0
100
AcDbBlockBegin
  2
*MODEL_SPACE
 70
   0
 10
0
 20
0
 30
0
  3
*MODEL_SPACE
  1
 
  0
ENDBLK
  5
A05
330
A02
100
AcDbEntity
  8
0
100
AcDbBlockEnd
  0
BLOCK
  5
A06
330
A03
100
AcDbEntity
 67
1
  8
0
100
AcDbBlockBegin
  2
*PAPER_SPACE
 70
   0
 10
0
 20
0
 30
0
  3
*PAPER_SPACE
  1
 
  0
ENDBLK
  5
A07
330
A03
100
AcDbEntity
 67
    1
  8
0
100
AcDbBlockEnd
  0
ENDSEC
  0
SECTION
  2
ENTITIES
  0
LINE
  5
A08
330
A02
100
AcDbEntity
  8
View
100
AcDbLine
 10
293.514126559
 20
188.715870327
 30
0.000000000
 11
293.514126559
 21
186.715870327
 31
0.000000000
  0
LINE
  5
A09
330
A02
100
AcDbEntity
  8
View
100
AcDbLine
 10
293.514126559
 20
188.715870327
 30
0.000000000
 11
287.514126559
 21
188.715870327
 31
0.000000000
  0
LINE
  5
A0A
330
A02
100
AcDbEntity
  8
View
100
AcDbLine
 10
293.514126559
 20
186.715870327
 30
0.000000000
 11
295.514126559
 21
186.715870327
 31
0.000000000
  0
LINE
  5
A0B
330
A02
100
AcDbEntity
  8
View
100
AcDbLine
 10
287.514126559
 20
203.715870327
 30
0.000000000
 11
287.514126559
 21
188.715870327
 31
0.000000000
  0
LINE
  5
A0C
330
A02
100
AcDbEntity
  8
View
100
AcDbLine
 10
285.514126559
 20
203.715870327
 30
0.000000000
 11
287.514126559
 21
203.715870327
 31
0.000000000
  0
LINE
  5
A0D
330
A02
100
AcDbEntity
  8
View
100
AcDbLine
 10
285.514126559
 20
205.715870327
 30
0.000000000
 11
285.514126559
 21
203.715870327
 31
0.000000000
  0
LINE
  5
A0E
330
A02
100
AcDbEntity
  8
View
100
AcDbLine
 10
231.514126559
 20
205.715870327
 30
0.000000000
 11
285.514126559
 21
205.715870327
 31
0.000000000
  0
LINE
  5
A0F
330
A02
100
AcDbEntity
  8
View
100
AcDbLine
 10
231.514126559
 20
203.715870327
 30
0.000000000
 11
231.514126559
 21
205.715870327
 31
0.000000000
  0
LINE
  5
A10
330
A02
100
AcDbEntity
  8
View
100
AcDbLine
 10
231.514126559
 20
203.715870327
 30
0.000000000
 11
223.514126559
 21
203.715870327
 31
0.000000000
  0
LINE
  5
A11
330
A02
100
AcDbEntity
  8
View
100
AcDbLine
 10
223.514126559
 20
203.715870327
 30
0.000000000
 11
223.514126559
 21
188.715870327
 31
0.000000000
  0
LINE
  5
A12
330
A02
100
AcDbEntity
  8
View
100
AcDbLine
 10
223.514126559
 20
188.715870327
 30
0.000000000
 11
221.514126559
 21
188.715870327
 31
0.000000000
  0
LINE
  5
A13
330
A02
100
AcDbEntity
  8
View
100
AcDbLine
 10
221.514126559
 20
148.715870327
 30
0.000000000
 11
221.514126559
 21
188.715870327
 31
0.000000000
  0
LINE
  5
A14
330
A02
100
AcDbEntity
  8
View
100
AcDbLine
 10
223.514126559
 20
148.715870327
 30
0.000000000
 11
221.514126559
 21
148.715870327
 31
0.000000000
  0
LINE
  5
A15
330
A02
100
AcDbEntity
  8
View
100
AcDbLine
 10
223.514126559
 20
135.715870327
 30
0.000000000
 11
223.514126559
 21
148.715870327
 31
0.000000000
  0
LINE
  5
A16
330
A02
100
AcDbEntity
  8
View
100
AcDbLine
 10
223.514126559
 20
135.715870327
 30
0.000000000
 11
231.514126559
 21
135.715870327
 31
0.000000000
  0
LINE
  5
A17
330
A02
100
AcDbEntity
  8
View
100
AcDbLine
 10
231.514126559
 20
135.715870327
 30
0.000000000
 11
231.514126559
 21
133.715870327
 31
0.000000000
  0
LINE
  5
A18
330
A02
100
AcDbEntity
  8
View
100
AcDbLine
 10
231.514126559
 20
133.715870327
 30
0.000000000
 11
246.514126559
 21
133.715870327
 31
0.000000000
  0
LINE
  5
A19
330
A02
100
AcDbEntity
  8
View
100
AcDbLine
 10
246.514126559
 20
133.715870327
 30
0.000000000
 11
246.514126559
 21
135.715870327
 31
0.000000000
  0
LINE
  5
A1A
330
A02
100
AcDbEntity
  8
View
100
AcDbLine
 10
246.514126559
 20
135.715870327
 30
0.000000000
 11
252.514126559
 21
135.715870327
 31
0.000000000
  0
LINE
  5
A1B
330
A02
100
AcDbEntity
  8
View
100
AcDbLine
 10
252.514126559
 20
154.536797327
 30
0.000000000
 11
252.514126559
 21
135.715870327
 31
0.000000000
  0
LINE
  5
A1C
330
A02
100
AcDbEntity
  8
View
100
AcDbLine
 10
264.514126559
 20
154.536797327
 30
0.000000000
 11
252.514126559
 21
154.536797327
 31
0.000000000
  0
LINE
  5
A1D
330
A02
100
AcDbEntity
  8
View
100
AcDbLine
 10
264.514126559
 20
135.715870327
 30
0.000000000
 11
264.514126559
 21
154.536797327
 31
0.000000000
  0
LINE
  5
A1E
330
A02
100
AcDbEntity
  8
View
100
AcDbLine
 10
264.514126559
 20
135.715870327
 30
0.000000000
 11
270.514126559
 21
135.715870327
 31
0.000000000
  0
LINE
  5
A1F
330
A02
100
AcDbEntity
  8
View
100
AcDbLine
 10
270.514126559
 20
133.715870327
 30
0.000000000
 11
270.514126559
 21
135.715870327
 31
0.000000000
  0
LINE
  5
A20
330
A02
100
AcDbEntity
  8
View
100
AcDbLine
 10
285.514126559
 20
133.715870327
 30
0.000000000
 11
270.514126559
 21
133.715870327
 31
0.000000000
  0
LINE
  5
A21
330
A02
100
AcDbEntity
  8
View
100
AcDbLine
 10
285.514126559
 20
133.715870327
 30
0.000000000
 11
285.514126559
 21
135.715870327
 31
0.000000000
  0
LINE
  5
A22
330
A02
100
AcDbEntity
  8
View
100
AcDbLine
 10
285.514126559
 20
135.715870327
 30
0.000000000
 11
293.514126559
 21
135.715870327
 31
0.000000000
  0
LINE
  5
A23
330
A02
100
AcDbEntity
  8
View
100
AcDbLine
 10
293.514126559
 20
148.715870327
 30
0.000000000
 11
293.514126559
 21
135.715870327
 31
0.000000000
  0
LINE
  5
A24
330
A02
100
AcDbEntity
  8
View
100
AcDbLine
 10
295.514126559
 20
148.715870327
 30
0.000000000
 11
293.514126559
 21
148.715870327
 31
0.000000000
  0
LINE
  5
A25
330
A02
100
AcDbEntity
  8
View
100
AcDbLine
 10
295.514126559
 20
186.715870327
 30
0.000000000
 11
295.514126559
 21
148.715870327
 31
0.000000000
  0
CIRCLE
  5
A26
330
A02
100
AcDbEntity
  8
View
100
AcDbCircle
 10
233.514126559
 20
168.715870327
 30
0.000000000
 40
5.000000000
  0
LINE
  5
A27
330
A02
100
AcDbEntity
  8
View
100
AcDbLine
 10
248.514126559
 20
193.536797327
 30
0.000000000
 11
246.014126559
 21
193.536797327
 31
0.000000000
  0
LINE
  5
A28
330
A02
100
AcDbEntity
  8
View
100
AcDbLine
 10
248.514126559
 20
172.536797327
 30
0.000000000
 11
248.514126559
 21
193.536797327
 31
0.000000000
  0
LINE
  5
A29
330
A02
100
AcDbEntity
  8
View
100
AcDbLine
 10
246.014126559
 20
172.536797327
 30
0.000000000
 11
248.514126559
 21
172.536797327
 31
0.000000000
  0
LINE
  5
A2A
330
A02
100
AcDbEntity
  8
View
100
AcDbLine
 10
246.014126559
 20
193.536797327
 30
0.000000000
 11
246.014126559
 21
172.536797327
 31
0.000000000
  0
LINE
  5
A2B
330
A02
100
AcDbEntity
  8
View
100
AcDbLine
 10
271.014126559
 20
172.536797327
 30
0.000000000
 11
271.014126559
 21
193.536797327
 31
0.000000000
  0
LINE
  5
A2C
330
A02
100
AcDbEntity
  8
View
100
AcDbLine
 10
268.514126559
 20
172.536797327
 30
0.000000000
 11
271.014126559
 21
172.536797327
 31
0.000000000
  0
LINE
  5
A2D
330
A02
100
AcDbEntity
  8
View
100
AcDbLine
 10
268.514126559
 20
193.536797327
 30
0.000000000
 11
268.514126559
 21
172.536797327
 31
0.000000000
  0
LINE
  5
A2E
330
A02
100
AcDbEntity
  8
View
100
AcDbLine
 10
271.014126559
 20
193.536797327
 30
0.000000000
 11
268.514126559
 21
193.536797327
 31
0.000000000
  0
LINE
  5
A2F
330
A02
100
AcDbEntity
  8
View001
100
AcDbLine
 10
293.574342785
 20
112.698255082
 30
0.000000000
 11
293.574342785
 21
110.698255082
 31
0.000000000
  0
LINE
  5
A30
330
A02
100
AcDbEntity
  8
View001
100
AcDbLine
 10
293.574342785
 20
112.698255082
 30
0.000000000
 11
287.574342785
 21
112.698255082
 31
0.000000000
  0
LINE
  5
A31
330
A02
100
AcDbEntity
  8
View001
100
AcDbLine
 10
293.574342785
 20
110.698255082
 30
0.000000000
 11
295.574342785
 21
110.698255082
 31
0.000000000
  0
LINE
  5
A32
330
A02
100
AcDbEntity
  8
View001
100
AcDbLine
 10
287.574342785
 20
122.698255082
 30
0.000000000
 11
287.574342785
 21
112.698255082
 31
0.000000000
  0
LINE
  5
A33
330
A02
100
AcDbEntity
  8
View001
100
AcDbLine
 10
295.574342785
 20
110.698255082
 30
0.000000000
 11
295.574342785
 21
72.698255082
 31
0.000000000
  0
LINE
  5
A34
330
A02
100
AcDbEntity
  8
View001
100
AcDbLine
 10
287.574342785
 20
122.698255082
 30
0.000000000
 11
293.574342785
 21
122.698255082
 31
0.000000000
  0
LINE
  5
A35
330
A02
100
AcDbEntity
  8
View001
100
AcDbLine
 10
295.574342785
 20
72.698255082
 30
0.000000000
 11
293.574342785
 21
72.698255082
 31
0.000000000
  0
LINE
  5
A36
330
A02
100
AcDbEntity
  8
View001
100
AcDbLine
 10
293.574342785
 20
122.698255082
 30
0.000000000
 11
293.574342785
 21
127.698255082
 31
0.000000000
  0
LINE
  5
A37
330
A02
100
AcDbEntity
  8
View001
100
AcDbLine
 10
293.574342785
 20
72.698255082
 30
0.000000000
 11
293.574342785
 21
59.698255082
 31
0.000000000
  0
LINE
  5
A38
330
A02
100
AcDbEntity
  8
View001
100
AcDbLine
 10
293.574342785
 20
127.698255082
 30
0.000000000
 11
285.574342785
 21
127.698255082
 31
0.000000000
  0
LINE
  5
A39
330
A02
100
AcDbEntity
  8
View001
100
AcDbLine
 10
285.574342785
 20
59.698255082
 30
0.000000000
 11
293.574342785
 21
59.698255082
 31
0.000000000
  0
LINE
  5
A3A
330
A02
100
AcDbEntity
  8
View001
100
AcDbLine
 10
285.574342785
 20
129.698255082
 30
0.000000000
 11
285.574342785
 21
127.698255082
 31
0.000000000
  0
LINE
  5
A3B
330
A02
100
AcDbEntity
  8
View001
100
AcDbLine
 10
285.574342785
 20
57.698255082
 30
0.000000000
 11
285.574342785
 21
59.698255082
 31
0.000000000
  0
LINE
  5
A3C
330
A02
100
AcDbEntity
  8
View001
100
AcDbLine
 10
231.574342785
 20
129.698255082
 30
0.000000000
 11
285.574342785
 21
129.698255082
 31
0.000000000
  0
LINE
  5
A3D
330
A02
100
AcDbEntity
  8
View001
100
AcDbLine
 10
231.574342785
 20
57.698255082
 30
0.000000000
 11
285.574342785
 21
57.698255082
 31
0.000000000
  0
LINE
  5
A3E
330
A02
100
AcDbEntity
  8
View001
100
AcDbLine
 10
231.574342785
 20
127.698255082
 30
0.000000000
 11
231.574342785
 21
129.698255082
 31
0.000000000
  0
LINE
  5
A3F
330
A02
100
AcDbEntity
  8
View001
100
AcDbLine
 10
231.574342785
 20
59.698255082
 30
0.000000000
 11
231.574342785
 21
57.698255082
 31
0.000000000
  0
LINE
  5
A40
330
A02
100
AcDbEntity
  8
View001
100
AcDbLine
 10
231.574342785
 20
127.698255082
 30
0.000000000
 11
223.574342785
 21
127.698255082
 31
0.000000000
  0
LINE
  5
A41
330
A02
100
AcDbEntity
  8
View001
100
AcDbLine
 10
223.574342785
 20
59.698255082
 30
0.000000000
 11
231.574342785
 21
59.698255082
 31
0.000000000
  0
LINE
  5
A42
330
A02
100
AcDbEntity
  8
View001
100
AcDbLine
 10
223.574342785
 20
127.698255082
 30
0.000000000
 11
223.574342785
 21
112.698255082
 31
0.000000000
  0
LINE
  5
A43
330
A02
100
AcDbEntity
  8
View001
100
AcDbLine
 10
223.574342785
 20
59.698255082
 30
0.000000000
 11
223.574342785
 21
72.698255082
 31
0.000000000
  0
LINE
  5
A44
330
A02
100
AcDbEntity
  8
View001
100
AcDbLine
 10
221.574342785
 20
112.698255082
 30
0.000000000
 11
223.574342785
 21
112.698255082
 31
0.000000000
  0
LINE
  5
A45
330
A02
100
AcDbEntity
  8
View001
100
AcDbLine
 10
223.574342785
 20
72.698255082
 30
0.000000000
 11
221.574342785
 21
72.698255082
 31
0.000000000
  0
LINE
  5
A46
330
A02
100
AcDbEntity
  8
View001
100
AcDbLine
 10
221.574342785
 20
72.698255082
 30
0.000000000
 11
221.574342785
 21
112.698255082
 31
0.000000000
  0
LINE
  5
A47
330
A02
100
AcDbEntity
  8
View001
100
AcDbLine
 10
262.824342785
 20
115.698255082
 30
0.000000000
 11
254.324342785
 21
115.698255082
 31
0.000000000
  0
LINE
  5
A48
330
A02
100
AcDbEntity
  8
View001
100
AcDbLine
 10
262.824342785
 20
107.198255082
 30
0.000000000
 11
262.824342785
 21
115.698255082
 31
0.000000000
  0
LINE
  5
A49
330
A02
100
AcDbEntity
  8
View001
100
AcDbLine
 10
254.324342785
 20
107.198255082
 30
0.000000000
 11
262.824342785
 21
107.198255082
 31
0.000000000
  0
LINE
  5
A4A
330
A02
100
AcDbEntity
  8
View001
100
AcDbLine
 10
254.324342785
 20
115.698255082
 30
0.000000000
 11
254.324342785
 21
107.198255082
 31
0.000000000
  0
LINE
  5
A4B
330
A02
100
AcDbEntity
  8
View004
100
AcDbLine
 10
3.102907654
 20
129.698255082
 30
0.000000000
 11
3.102907654
 21
57.698255082
 31
0.000000000
  0
LINE
  5
A4C
330
A02
100
AcDbEntity
  8
View004
100
AcDbLine
 10
3.102907654
 20
57.698255082
 30
0.000000000
 11
156.102907654
 21
57.698255082
 31
0.000000000
  0
LINE
  5
A4D
330
A02
100
AcDbEntity
  8
View004
100
AcDbLine
 10
156.102907654
 20
57.698255082
 30
0.000000000
 11
156.102907654
 21
59.698255082
 31
0.000000000
  0
LINE
  5
A4E
330
A02
100
AcDbEntity
  8
View004
100
AcDbLine
 10
156.102907654
 20
59.698255082
 30
0.000000000
 11
167.002907654
 21
59.698255082
 31
0.000000000
  0
LINE
  5
A4F
330
A02
100
AcDbEntity
  8
View004
100
AcDbLine
 10
167.002907654
 20
59.698255082
 30
0.000000000
 11
167.002907654
 21
61.698255082
 31
0.000000000
  0
ARC
  5
A50
330
A02
100
AcDbEntity
  8
View004
100
AcDbCircle
 10
169.002907654
 20
64.888255082
 30
0.000000000
 40
3.765116200
100
AcDbArc
 50
-57.913964002
 51
-122.086035998
  0
LINE
  5
A51
330
A02
100
AcDbEntity
  8
View004
100
AcDbLine
 10
171.002907654
 20
61.698255082
 30
0.000000000
 11
171.002907654
 21
59.698255082
 31
0.000000000
  0
LINE
  5
A52
330
A02
100
AcDbEntity
  8
View004
100
AcDbLine
 10
171.002907654
 20
59.698255082
 30
0.000000000
 11
208.102907654
 21
59.698255082
 31
0.000000000
  0
ARC
  5
A53
330
A02
100
AcDbEntity
  8
View004
100
AcDbCircle
 10
208.102907654
 20
67.698255082
 30
0.000000000
 40
8.000000000
100
AcDbArc
 50
-90.000000000
 51
0.000000000
  0
LINE
  5
A54
330
A02
100
AcDbEntity
  8
View004
100
AcDbLine
 10
216.102907654
 20
119.698255082
 30
0.000000000
 11
216.102907654
 21
67.698255082
 31
0.000000000
  0
ARC
  5
A55
330
A02
100
AcDbEntity
  8
View004
100
AcDbCircle
 10
208.102907654
 20
119.698255082
 30
0.000000000
 40
8.000000000
100
AcDbArc
 50
0.000000000
 51
90.000000000
  0
LINE
  5
A56
330
A02
100
AcDbEntity
  8
View004
100
AcDbLine
 10
208.102907654
 20
127.698255082
 30
0.000000000
 11
171.002907654
 21
127.698255082
 31
0.000000000
  0
LINE
  5
A57
330
A02
100
AcDbEntity
  8
View004
100
AcDbLine
 10
171.002907654
 20
127.698255082
 30
0.000000000
 11
171.002907654
 21
125.698255082
 31
0.000000000
  0
ARC
  5
A58
330
A02
100
AcDbEntity
  8
View004
100
AcDbCircle
 10
169.002907654
 20
122.508255082
 30
0.000000000
 40
3.765116200
100
AcDbArc
 50
122.086035998
 51
57.913964002
  0
LINE
  5
A59
330
A02
100
AcDbEntity
  8
View004
100
AcDbLine
 10
167.002907654
 20
125.698255082
 30
0.000000000
 11
167.002907654
 21
127.698255082
 31
0.000000000
  0
LINE
  5
A5A
330
A02
100
AcDbEntity
  8
View004
100
AcDbLine
 10
167.002907654
 20
127.698255082
 30
0.000000000
 11
156.102907654
 21
127.698255082
 31
0.000000000
  0
LINE
  5
A5B
330
A02
100
AcDbEntity
  8
View004
100
AcDbLine
 10
156.102907654
 20
129.698255082
 30
0.000000000
 11
156.102907654
 21
127.698255082
 31
0.000000000
  0
LINE
  5
A5C
330
A02
100
AcDbEntity
  8
View004
100
AcDbLine
 10
3.102907654
 20
129.698255082
 30
0.000000000
 11
156.102907654
 21
129.698255082
 31
0.000000000
  0
LINE
  5
A5D
330
A02
100
AcDbEntity
  8
View004
100
AcDbLine
 10
30.739660654
 20
119.698255082
 30
0.000000000
 11
98.102907654
 21
119.698255082
 31
0.000000000
  0
LINE
  5
A5E
330
A02
100
AcDbEntity
  8
View004
100
AcDbLine
 10
98.102907654
 20
65.698255082
 30
0.000000000
 11
98.102907654
 21
119.698255082
 31
0.000000000
  0
LINE
  5
A5F
330
A02
100
AcDbEntity
  8
View004
100
AcDbLine
 10
98.102907654
 20
65.698255082
 30
0.000000000
 11
29.659660654
 21
65.698255082
 31
0.000000000
  0
ARC
  5
A60
330
A02
100
AcDbEntity
  8
View004
100
AcDbCircle
 10
29.659660654
 20
72.255008082
 30
0.000000000
 40
6.556753000
100
AcDbArc
 50
180.000000000
 51
-90.000000000
  0
LINE
  5
A61
330
A02
100
AcDbEntity
  8
View004
100
AcDbLine
 10
23.102907654
 20
72.255008082
 30
0.000000000
 11
23.102907654
 21
112.061502082
 31
0.000000000
  0
ARC
  5
A62
330
A02
100
AcDbEntity
  8
View004
100
AcDbCircle
 10
30.739660654
 20
112.061502082
 30
0.000000000
 40
7.636753000
100
AcDbArc
 50
90.000000000
 51
180.000000000
  0
LINE
  5
A63
330
A02
100
AcDbEntity
  8
View004
100
AcDbLine
 10
113.102907654
 20
119.698255082
 30
0.000000000
 11
148.102907654
 21
119.698255082
 31
0.000000000
  0
ARC
  5
A64
330
A02
100
AcDbEntity
  8
View004
100
AcDbCircle
 10
148.102907654
 20
111.698255082
 30
0.000000000
 40
8.000000000
100
AcDbArc
 50
0.000000000
 51
90.000000000
  0
LINE
  5
A65
330
A02
100
AcDbEntity
  8
View004
100
AcDbLine
 10
156.102907654
 20
111.698255082
 30
0.000000000
 11
156.102907654
 21
73.698255082
 31
0.000000000
  0
ARC
  5
A66
330
A02
100
AcDbEntity
  8
View004
100
AcDbCircle
 10
148.102907654
 20
73.698255082
 30
0.000000000
 40
8.000000000
100
AcDbArc
 50
-90.000000000
 51
0.000000000
  0
LINE
  5
A67
330
A02
100
AcDbEntity
  8
View004
100
AcDbLine
 10
148.102907654
 20
65.698255082
 30
0.000000000
 11
113.102907654
 21
65.698255082
 31
0.000000000
  0
LINE
  5
A68
330
A02
100
AcDbEntity
  8
View004
100
AcDbLine
 10
113.102907654
 20
119.698255082
 30
0.000000000
 11
113.102907654
 21
65.698255082
 31
0.000000000
  0
LINE
  5
A69
330
A02
100
AcDbEntity
  8
View004
100
AcDbLine
 10
164.302907654
 20
110.698255082
 30
0.000000000
 11
166.102907654
 21
110.698255082
 31
0.000000000
  0
LINE
  5
A6A
330
A02
100
AcDbEntity
  8
View004
100
AcDbLine
 10
166.102907654
 20
110.698255082
 30
0.000000000
 11
166.102907654
 21
72.698255082
 31
0.000000000
  0
LINE
  5
A6B
330
A02
100
AcDbEntity
  8
View004
100
AcDbLine
 10
166.102907654
 20
72.698255082
 30
0.000000000
 11
164.302907654
 21
72.698255082
 31
0.000000000
  0
LINE
  5
A6C
330
A02
100
AcDbEntity
  8
View004
100
AcDbLine
 10
164.302907654
 20
72.698255082
 30
0.000000000
 11
164.302907654
 21
110.698255082
 31
0.000000000
  0
LINE
  5
A6D
330
A02
100
AcDbEntity
  8
View004
100
AcDbLine
 10
172.102907654
 20
110.698255082
 30
0.000000000
 11
172.102907654
 21
72.698255082
 31
0.000000000
  0
LINE
  5
A6E
330
A02
100
AcDbEntity
  8
View004
100
AcDbLine
 10
172.102907654
 20
72.698255082
 30
0.000000000
 11
173.902907654
 21
72.698255082
 31
0.000000000
  0
LINE
  5
A6F
330
A02
100
AcDbEntity
  8
View004
100
AcDbLine
 10
173.902907654
 20
72.698255082
 30
0.000000000
 11
173.902907654
 21
110.698255082
 31
0.000000000
  0
LINE
  5
A70
330
A02
100
AcDbEntity
  8
View004
100
AcDbLine
 10
173.902907654
 20
110.698255082
 30
0.000000000
 11
172.102907654
 21
110.698255082
 31
0.000000000
  0
LINE
  5
A71
330
A02
100
AcDbEntity
  8
View004
100
AcDbLine
 10
206.102907654
 20
102.698255082
 30
0.000000000
 11
206.102907654
 21
65.698255082
 31
0.000000000
  0
LINE
  5
A72
330
A02
100
AcDbEntity
  8
View004
100
AcDbLine
 10
206.102907654
 20
65.698255082
 30
0.000000000
 11
204.302907654
 21
65.698255082
 31
0.000000000
  0
LINE
  5
A73
330
A02
100
AcDbEntity
  8
View004
100
AcDbLine
 10
204.302907654
 20
65.698255082
 30
0.000000000
 11
204.302907654
 21
102.698255082
 31
0.000000000
  0
LINE
  5
A74
330
A02
100
AcDbEntity
  8
View004
100
AcDbLine
 10
204.302907654
 20
102.698255082
 30
0.000000000
 11
206.102907654
 21
102.698255082
 31
0.000000000
  0
ARC
  5
A75
330
A02
100
AcDbEntity
  8
View004
100
AcDbCircle
 10
88.102907654
 20
124.698255082
 30
0.000000000
 40
1.000000000
100
AcDbArc
 50
-90.000000000
 51
90.000000000
  0
LINE
  5
A76
330
A02
100
AcDbEntity
  8
View004
100
AcDbLine
 10
88.102907654
 20
123.698255082
 30
0.000000000
 11
84.102907654
 21
123.698255082
 31
0.000000000
  0
ARC
  5
A77
330
A02
100
AcDbEntity
  8
View004
100
AcDbCircle
 10
84.102907654
 20
124.698255082
 30
0.000000000
 40
1.000000000
100
AcDbArc
 50
90.000000000
 51
-90.000000000
  0
LINE
  5
A78
330
A02
100
AcDbEntity
  8
View004
100
AcDbLine
 10
88.102907654
 20
125.698255082
 30
0.000000000
 11
84.102907654
 21
125.698255082
 31
0.000000000
  0
ARC
  5
A79
330
A02
100
AcDbEntity
  8
View004
100
AcDbCircle
 10
34.102907654
 20
124.698255082
 30
0.000000000
 40
1.000000000
100
AcDbArc
 50
-90.000000000
 51
90.000000000
  0
LINE
  5
A7A
330
A02
100
AcDbEntity
  8
View004
100
AcDbLine
 10
34.102907654
 20
123.698255082
 30
0.000000000
 11
30.102907654
 21
123.698255082
 31
0.000000000
  0
ARC
  5
A7B
330
A02
100
AcDbEntity
  8
View004
100
AcDbCircle
 10
30.102907654
 20
124.698255082
 30
0.000000000
 40
1.000000000
100
AcDbArc
 50
90.000000000
 51
-90.000000000
  0
LINE
  5
A7C
330
A02
100
AcDbEntity
  8
View004
100
AcDbLine
 10
34.102907654
 20
125.698255082
 30
0.000000000
 11
30.102907654
 21
125.698255082
 31
0.000000000
  0
ARC
  5
A7D
330
A02
100
AcDbEntity
  8
View004
100
AcDbCircle
 10
142.102907654
 20
124.698255082
 30
0.000000000
 40
1.000000000
100
AcDbArc
 50
-90.000000000
 51
90.000000000
  0
LINE
  5
A7E
330
A02
100
AcDbEntity
  8
View004
100
AcDbLine
 10
142.102907654
 20
123.698255082
 30
0.000000000
 11
138.102907654
 21
123.698255082
 31
0.000000000
  0
ARC
  5
A7F
330
A02
100
AcDbEntity
  8
View004
100
AcDbCircle
 10
138.102907654
 20
124.698255082
 30
0.000000000
 40
1.000000000
100
AcDbArc
 50
90.000000000
 51
-90.000000000
  0
LINE
  5
A80
330
A02
100
AcDbEntity
  8
View004
100
AcDbLine
 10
142.102907654
 20
125.698255082
 30
0.000000000
 11
138.102907654
 21
125.698255082
 31
0.000000000
  0
CIRCLE
  5
A81
330
A02
100
AcDbEntity
  8
View004
100
AcDbCircle
 10
13.102907654
 20
72.698255082
 30
0.000000000
 40
1.000000000
  0
CIRCLE
  5
A82
330
A02
100
AcDbEntity
  8
View004
100
AcDbCircle
 10
13.102907654
 20
112.698255082
 30
0.000000000
 40
1.000000000
  0
LINE
  5
A83
330
A02
100
AcDbEntity
  8
View005
100
AcDbLine
 10
156.102907654
 20
133.715870327
 30
0.000000000
 11
156.102907654
 21
135.715870327
 31
0.000000000
  0
LINE
  5
A84
330
A02
100
AcDbEntity
  8
View005
100
AcDbLine
 10
156.102907654
 20
133.715870327
 30
0.000000000
 11
3.102907654
 21
133.715870327
 31
0.000000000
  0
LINE
  5
A85
330
A02
100
AcDbEntity
  8
View005
100
AcDbLine
 10
3.102907654
 20
205.715870327
 30
0.000000000
 11
3.102907654
 21
133.715870327
 31
0.000000000
  0
LINE
  5
A86
330
A02
100
AcDbEntity
  8
View005
100
AcDbLine
 10
3.102907654
 20
205.715870327
 30
0.000000000
 11
156.102907654
 21
205.715870327
 31
0.000000000
  0
LINE
  5
A87
330
A02
100
AcDbEntity
  8
View005
100
AcDbLine
 10
156.102907654
 20
205.715870327
 30
0.000000000
 11
156.102907654
 21
203.715870327
 31
0.000000000
  0
LINE
  5
A88
330
A02
100
AcDbEntity
  8
View005
100
AcDbLine
 10
156.102907654
 20
203.715870327
 30
0.000000000
 11
167.202907654
 21
203.715870327
 31
0.000000000
  0
LINE
  5
A89
330
A02
100
AcDbEntity
  8
View005
100
AcDbLine
 10
167.202907654
 20
201.715870327
 30
0.000000000
 11
167.202907654
 21
203.715870327
 31
0.000000000
  0
ARC
  5
A8A
330
A02
100
AcDbEntity
  8
View005
100
AcDbCircle
 10
169.202907654
 20
198.715870327
 30
0.000000000
 40
3.605551275
100
AcDbArc
 50
123.690067526
 51
56.309932474
  0
LINE
  5
A8B
330
A02
100
AcDbEntity
  8
View005
100
AcDbLine
 10
171.202907654
 20
203.715870327
 30
0.000000000
 11
171.202907654
 21
201.715870327
 31
0.000000000
  0
LINE
  5
A8C
330
A02
100
AcDbEntity
  8
View005
100
AcDbLine
 10
208.102907654
 20
203.715870327
 30
0.000000000
 11
171.202907654
 21
203.715870327
 31
0.000000000
  0
ARC
  5
A8D
330
A02
100
AcDbEntity
  8
View005
100
AcDbCircle
 10
208.102907654
 20
195.715870327
 30
0.000000000
 40
8.000000000
100
AcDbArc
 50
0.000002989
 51
90.000000000
  0
LINE
  5
A8E
330
A02
100
AcDbEntity
  8
View005
100
AcDbLine
 10
216.102907654
 20
195.715870745
 30
0.000000000
 11
216.102907654
 21
143.715870327
 31
0.000000000
  0
ARC
  5
A8F
330
A02
100
AcDbEntity
  8
View005
100
AcDbCircle
 10
208.102907654
 20
143.715870327
 30
0.000000000
 40
8.000000000
100
AcDbArc
 50
-90.000000000
 51
0.000000000
  0
LINE
  5
A90
330
A02
100
AcDbEntity
  8
View005
100
AcDbLine
 10
171.202907654
 20
135.715870327
 30
0.000000000
 11
208.102907654
 21
135.715870327
 31
0.000000000
  0
LINE
  5
A91
330
A02
100
AcDbEntity
  8
View005
100
AcDbLine
 10
171.202907654
 20
137.715870327
 30
0.000000000
 11
171.202907654
 21
135.715870327
 31
0.000000000
  0
ARC
  5
A92
330
A02
100
AcDbEntity
  8
View005
100
AcDbCircle
 10
169.202907654
 20
140.715870327
 30
0.000000000
 40
3.605551275
100
AcDbArc
 50
-56.309932474
 51
-123.690067526
  0
LINE
  5
A93
330
A02
100
AcDbEntity
  8
View005
100
AcDbLine
 10
167.202907654
 20
135.715870327
 30
0.000000000
 11
167.202907654
 21
137.715870327
 31
0.000000000
  0
LINE
  5
A94
330
A02
100
AcDbEntity
  8
View005
100
AcDbLine
 10
156.102907654
 20
135.715870327
 30
0.000000000
 11
167.202907654
 21
135.715870327
 31
0.000000000
  0
LINE
  5
A95
330
A02
100
AcDbEntity
  8
View005
100
AcDbLine
 10
30.739656088
 20
195.715870327
 30
0.000000000
 11
98.102907654
 21
195.715870327
 31
0.000000000
  0
LINE
  5
A96
330
A02
100
AcDbEntity
  8
View005
100
AcDbLine
 10
98.102907654
 20
141.715870327
 30
0.000000000
 11
98.102907654
 21
195.715870327
 31
0.000000000
  0
LINE
  5
A97
330
A02
100
AcDbEntity
  8
View005
100
AcDbLine
 10
98.102907654
 20
141.715870327
 30
0.000000000
 11
29.389859582
 21
141.715870327
 31
0.000000000
  0
ARC
  5
A98
330
A02
100
AcDbEntity
  8
View005
100
AcDbCircle
 10
29.389859582
 20
148.002822255
 30
0.000000000
 40
6.286951927
100
AcDbArc
 50
180.000000000
 51
-90.000000000
  0
LINE
  5
A99
330
A02
100
AcDbEntity
  8
View005
100
AcDbLine
 10
23.102907654
 20
148.002822255
 30
0.000000000
 11
23.102907654
 21
188.079121894
 31
0.000000000
  0
ARC
  5
A9A
330
A02
100
AcDbEntity
  8
View005
100
AcDbCircle
 10
30.739656088
 20
188.079121894
 30
0.000000000
 40
7.636748434
100
AcDbArc
 50
90.000000000
 51
180.000000000
  0
LINE
  5
A9B
330
A02
100
AcDbEntity
  8
View005
100
AcDbLine
 10
113.102907654
 20
195.715870327
 30
0.000000000
 11
148.102905941
 21
195.715870327
 31
0.000000000
  0
ARC
  5
A9C
330
A02
100
AcDbEntity
  8
View005
100
AcDbCircle
 10
148.102907654
 20
187.715870327
 30
0.000000000
 40
8.000000000
100
AcDbArc
 50
0.000000000
 51
90.000012268
  0
LINE
  5
A9D
330
A02
100
AcDbEntity
  8
View005
100
AcDbLine
 10
156.102907654
 20
187.715870327
 30
0.000000000
 11
156.102907654
 21
149.715870327
 31
0.000000000
  0
ARC
  5
A9E
330
A02
100
AcDbEntity
  8
View005
100
AcDbCircle
 10
148.102907654
 20
149.715870327
 30
0.000000000
 40
8.000000000
100
AcDbArc
 50
-90.000000000
 51
0.000000000
  0
LINE
  5
A9F
330
A02
100
AcDbEntity
  8
View005
100
AcDbLine
 10
148.102907654
 20
141.715870327
 30
0.000000000
 11
113.102907654
 21
141.715870327
 31
0.000000000
  0
LINE
  5
AA0
330
A02
100
AcDbEntity
  8
View005
100
AcDbLine
 10
113.102907654
 20
195.715870327
 30
0.000000000
 11
113.102907654
 21
141.715870327
 31
0.000000000
  0
LINE
  5
AA1
330
A02
100
AcDbEntity
  8
View005
100
AcDbLine
 10
195.102907654
 20
184.415870327
 30
0.000000000
 11
195.102907654
 21
141.715870327
 31
0.000000000
  0
LINE
  5
AA2
330
A02
100
AcDbEntity
  8
View005
100
AcDbLine
 10
195.102907654
 20
141.715870327
 30
0.000000000
 11
193.302907654
 21
141.715870327
 31
0.000000000
  0
LINE
  5
AA3
330
A02
100
AcDbEntity
  8
View005
100
AcDbLine
 10
193.302907654
 20
141.715870327
 30
0.000000000
 11
193.302907654
 21
184.415870327
 31
0.000000000
  0
LINE
  5
AA4
330
A02
100
AcDbEntity
  8
View005
100
AcDbLine
 10
193.302907654
 20
184.415870327
 30
0.000000000
 11
195.102907654
 21
184.415870327
 31
0.000000000
  0
LINE
  5
AA5
330
A02
100
AcDbEntity
  8
View005
100
AcDbLine
 10
164.102907654
 20
188.715870327
 30
0.000000000
 11
165.902907654
 21
188.715870327
 31
0.000000000
  0
LINE
  5
AA6
330
A02
100
AcDbEntity
  8
View005
100
AcDbLine
 10
165.902907654
 20
188.715870327
 30
0.000000000
 11
165.902907654
 21
148.715870327
 31
0.000000000
  0
LINE
  5
AA7
330
A02
100
AcDbEntity
  8
View005
100
AcDbLine
 10
165.902907654
 20
148.715870327
 30
0.000000000
 11
164.102907654
 21
148.715870327
 31
0.000000000
  0
LINE
  5
AA8
330
A02
100
AcDbEntity
  8
View005
100
AcDbLine
 10
164.102907654
 20
148.715870327
 30
0.000000000
 11
164.102907654
 21
188.715870327
 31
0.000000000
  0
LINE
  5
AA9
330
A02
100
AcDbEntity
  8
View005
100
AcDbLine
 10
172.302907654
 20
188.715870327
 30
0.000000000
 11
172.302907654
 21
148.715870327
 31
0.000000000
  0
LINE
  5
AAA
330
A02
100
AcDbEntity
  8
View005
100
AcDbLine
 10
172.302907654
 20
148.715870327
 30
0.000000000
 11
174.102907654
 21
148.715870327
 31
0.000000000
  0
LINE
  5
AAB
330
A02
100
AcDbEntity
  8
View005
100
AcDbLine
 10
174.102907654
 20
148.715870327
 30
0.000000000
 11
174.102907654
 21
188.715870327
 31
0.000000000
  0
LINE
  5
AAC
330
A02
100
AcDbEntity
  8
View005
100
AcDbLine
 10
174.102907654
 20
188.715870327
 30
0.000000000
 11
172.302907654
 21
188.715870327
 31
0.000000000
  0
LINE
  5
AAD
330
A02
100
AcDbEntity
  8
View005
100
AcDbLine
 10
205.902907654
 20
149.715870327
 30
0.000000000
 11
205.902907654
 21
141.715870327
 31
0.000000000
  0
LINE
  5
AAE
330
A02
100
AcDbEntity
  8
View005
100
AcDbLine
 10
205.902907654
 20
141.715870327
 30
0.000000000
 11
204.102907654
 21
141.715870327
 31
0.000000000
  0
LINE
  5
AAF
330
A02
100
AcDbEntity
  8
View005
100
AcDbLine
 10
204.102907654
 20
141.715870327
 30
0.000000000
 11
204.102907654
 21
149.715870327
 31
0.000000000
  0
LINE
  5
AB0
330
A02
100
AcDbEntity
  8
View005
100
AcDbLine
 10
204.102907654
 20
149.715870327
 30
0.000000000
 11
205.902907654
 21
149.715870327
 31
0.000000000
  0
CIRCLE
  5
AB1
330
A02
100
AcDbEntity
  8
View005
100
AcDbCircle
 10
13.102907654
 20
148.715870327
 30
0.000000000
 40
1.000000000
  0
CIRCLE
  5
AB2
330
A02
100
AcDbEntity
  8
View005
100
AcDbCircle
 10
13.102907654
 20
188.715870327
 30
0.000000000
 40
1.000000000
  0
LINE
  5
AB3
330
A02
100
AcDbEntity
  8
View009
100
AcDbLine
 10
4.286922391
 20
40.093562089
 30
0.000000000
 11
4.286922391
 21
41.093562089
 31
0.000000000
  0
ARC
  5
AB4
330
A02
100
AcDbEntity
  8
View009
100
AcDbCircle
 10
5.286922391
 20
41.093562089
 30
0.000000000
 40
1.000000000
100
AcDbArc
 50
90.000000000
 51
180.000000000
  0
LINE
  5
AB5
330
A02
100
AcDbEntity
  8
View009
100
AcDbLine
 10
5.286922391
 20
42.093562089
 30
0.000000000
 11
10.347375634
 21
42.093562089
 31
0.000000000
  0
ARC
  5
AB6
330
A02
100
AcDbEntity
  8
View009
100
AcDbCircle
 10
10.347375634
 20
41.093562089
 30
0.000000000
 40
1.000000000
100
AcDbArc
 50
0.000000000
 51
90.000000000
  0
LINE
  5
AB7
330
A02
100
AcDbEntity
  8
View009
100
AcDbLine
 10
11.347375634
 20
41.093562089
 30
0.000000000
 11
11.347375634
 21
40.093562089
 31
0.000000000
  0
LINE
  5
AB8
330
A02
100
AcDbEntity
  8
View009
100
AcDbLine
 10
11.347375634
 20
40.093562089
 30
0.000000000
 11
9.967149013
 21
40.093562089
 31
0.000000000
  0
LINE
  5
AB9
330
A02
100
AcDbEntity
  8
View009
100
AcDbLine
 10
9.967149013
 20
40.093562089
 30
0.000000000
 11
9.967149013
 21
35.593562089
 31
0.000000000
  0
ARC
  5
ABA
330
A02
100
AcDbEntity
  8
View009
100
AcDbCircle
 10
7.817149013
 20
32.793562089
 30
0.000000000
 40
3.530226622
100
AcDbArc
 50
127.519113820
 51
52.480886180
  0
LINE
  5
ABB
330
A02
100
AcDbEntity
  8
View009
100
AcDbLine
 10
5.667149013
 20
35.593562089
 30
0.000000000
 11
5.667149013
 21
40.093562089
 31
0.000000000
  0
LINE
  5
ABC
330
A02
100
AcDbEntity
  8
View009
100
AcDbLine
 10
4.286922391
 20
40.093562089
 30
0.000000000
 11
5.667149013
 21
40.093562089
 31
0.000000000
  0
LINE
  5
ABD
330
A02
100
AcDbEntity
  8
View010
100
AcDbLine
 10
19.554822232
 20
40.093562089
 30
0.000000000
 11
19.554822232
 21
41.093562089
 31
0.000000000
  0
ARC
  5
ABE
330
A02
100
AcDbEntity
  8
View010
100
AcDbCircle
 10
20.554822232
 20
41.093562089
 30
0.000000000
 40
1.000000000
100
AcDbArc
 50
90.000000000
 51
180.000000000
  0
LINE
  5
ABF
330
A02
100
AcDbEntity
  8
View010
100
AcDbLine
 10
20.554822232
 20
42.093562089
 30
0.000000000
 11
25.615275476
 21
42.093562089
 31
0.000000000
  0
ARC
  5
AC0
330
A02
100
AcDbEntity
  8
View010
100
AcDbCircle
 10
25.615275476
 20
41.093562089
 30
0.000000000
 40
1.000000000
100
AcDbArc
 50
0.000000000
 51
90.000000000
  0
LINE
  5
AC1
330
A02
100
AcDbEntity
  8
View010
100
AcDbLine
 10
26.615275476
 20
41.093562089
 30
0.000000000
 11
26.615275476
 21
40.093562089
 31
0.000000000
  0
LINE
  5
AC2
330
A02
100
AcDbEntity
  8
View010
100
AcDbLine
 10
26.615275476
 20
40.093562089
 30
0.000000000
 11
25.235048854
 21
40.093562089
 31
0.000000000
  0
LINE
  5
AC3
330
A02
100
AcDbEntity
  8
View010
100
AcDbLine
 10
25.235048854
 20
40.093562089
 30
0.000000000
 11
25.235048854
 21
35.593562089
 31
0.000000000
  0
ARC
  5
AC4
330
A02
100
AcDbEntity
  8
View010
100
AcDbCircle
 10
23.085048854
 20
32.793562089
 30
0.000000000
 40
3.530226622
100
AcDbArc
 50
127.519113820
 51
52.480886180
  0
LINE
  5
AC5
330
A02
100
AcDbEntity
  8
View010
100
AcDbLine
 10
20.935048854
 20
35.593562089
 30
0.000000000
 11
20.935048854
 21
40.093562089
 31
0.000000000
  0
LINE
  5
AC6
330
A02
100
AcDbEntity
  8
View010
100
AcDbLine
 10
19.554822232
 20
40.093562089
 30
0.000000000
 11
20.935048854
 21
40.093562089
 31
0.000000000
  0
LINE
  5
AC7
330
A02
100
AcDbEntity
  8
View011
100
AcDbLine
 10
34.946987962
 20
40.093562089
 30
0.000000000
 11
34.946987962
 21
41.093562089
 31
0.000000000
  0
ARC
  5
AC8
330
A02
100
AcDbEntity
  8
View011
100
AcDbCircle
 10
35.946987962
 20
41.093562089
 30
0.000000000
 40
1.000000000
100
AcDbArc
 50
90.000000000
 51
180.000000000
  0
LINE
  5
AC9
330
A02
100
AcDbEntity
  8
View011
100
AcDbLine
 10
35.946987962
 20
42.093562089
 30
0.000000000
 11
41.007441206
 21
42.093562089
 31
0.000000000
  0
ARC
  5
ACA
330
A02
100
AcDbEntity
  8
View011
100
AcDbCircle
 10
41.007441206
 20
41.093562089
 30
0.000000000
 40
1.000000000
100
AcDbArc
 50
0.000000000
 51
90.000000000
  0
LINE
  5
ACB
330
A02
100
AcDbEntity
  8
View011
100
AcDbLine
 10
42.007441206
 20
41.093562089
 30
0.000000000
 11
42.007441206
 21
40.093562089
 31
0.000000000
  0
LINE
  5
ACC
330
A02
100
AcDbEntity
  8
View011
100
AcDbLine
 10
42.007441206
 20
40.093562089
 30
0.000000000
 11
40.627214584
 21
40.093562089
 31
0.000000000
  0
LINE
  5
ACD
330
A02
100
AcDbEntity
  8
View011
100
AcDbLine
 10
40.627214584
 20
40.093562089
 30
0.000000000
 11
40.627214584
 21
35.593562089
 31
0.000000000
  0
ARC
  5
ACE
330
A02
100
AcDbEntity
  8
View011
100
AcDbCircle
 10
38.477214584
 20
32.793562089
 30
0.000000000
 40
3.530226622
100
AcDbArc
 50
127.519113820
 51
52.480886180
  0
LINE
  5
ACF
330
A02
100
AcDbEntity
  8
View011
100
AcDbLine
 10
36.327214584
 20
35.593562089
 30
0.000000000
 11
36.327214584
 21
40.093562089
 31
0.000000000
  0
LINE
  5
AD0
330
A02
100
AcDbEntity
  8
View011
100
AcDbLine
 10
34.946987962
 20
40.093562089
 30
0.000000000
 11
36.327214584
 21
40.093562089
 31
0.000000000
  0
LINE
  5
AD1
330
A02
100
AcDbEntity
  8
View012
100
AcDbLine
 10
50.051579089
 20
40.093562089
 30
0.000000000
 11
50.051579089
 21
41.093562089
 31
0.000000000
  0
ARC
  5
AD2
330
A02
100
AcDbEntity
  8
View012
100
AcDbCircle
 10
51.051579089
 20
41.093562089
 30
0.000000000
 40
1.000000000
100
AcDbArc
 50
90.000000000
 51
180.000000000
  0
LINE
  5
AD3
330
A02
100
AcDbEntity
  8
View012
100
AcDbLine
 10
51.051579089
 20
42.093562089
 30
0.000000000
 11
56.112032333
 21
42.093562089
 31
0.000000000
  0
ARC
  5
AD4
330
A02
100
AcDbEntity
  8
View012
100
AcDbCircle
 10
56.112032333
 20
41.093562089
 30
0.000000000
 40
1.000000000
100
AcDbArc
 50
0.000000000
 51
90.000000000
  0
LINE
  5
AD5
330
A02
100
AcDbEntity
  8
View012
100
AcDbLine
 10
57.112032333
 20
41.093562089
 30
0.000000000
 11
57.112032333
 21
40.093562089
 31
0.000000000
  0
LINE
  5
AD6
330
A02
100
AcDbEntity
  8
View012
100
AcDbLine
 10
57.112032333
 20
40.093562089
 30
0.000000000
 11
55.731805711
 21
40.093562089
 31
0.000000000
  0
LINE
  5
AD7
330
A02
100
AcDbEntity
  8
View012
100
AcDbLine
 10
55.731805711
 20
40.093562089
 30
0.000000000
 11
55.731805711
 21
35.593562089
 31
0.000000000
  0
ARC
  5
AD8
330
A02
100
AcDbEntity
  8
View012
100
AcDbCircle
 10
53.581805711
 20
32.793562089
 30
0.000000000
 40
3.530226622
100
AcDbArc
 50
127.519113820
 51
52.480886180
  0
LINE
  5
AD9
330
A02
100
AcDbEntity
  8
View012
100
AcDbLine
 10
51.431805711
 20
35.593562089
 30
0.000000000
 11
51.431805711
 21
40.093562089
 31
0.000000000
  0
LINE
  5
ADA
330
A02
100
AcDbEntity
  8
View012
100
AcDbLine
 10
50.051579089
 20
40.093562089
 30
0.000000000
 11
51.431805711
 21
40.093562089
 31
0.000000000
  0
LINE
  5
ADB
330
A02
100
AcDbEntity
  8
View013
100
AcDbLine
 10
63.665849957
 20
40.093562089
 30
0.000000000
 11
63.665849957
 21
41.093562089
 31
0.000000000
  0
ARC
  5
ADC
330
A02
100
AcDbEntity
  8
View013
100
AcDbCircle
 10
64.665849957
 20
41.093562089
 30
0.000000000
 40
1.000000000
100
AcDbArc
 50
90.000000000
 51
180.000000000
  0
LINE
  5
ADD
330
A02
100
AcDbEntity
  8
View013
100
AcDbLine
 10
64.665849957
 20
42.093562089
 30
0.000000000
 11
69.726303200
 21
42.093562089
 31
0.000000000
  0
ARC
  5
ADE
330
A02
100
AcDbEntity
  8
View013
100
AcDbCircle
 10
69.726303200
 20
41.093562089
 30
0.000000000
 40
1.000000000
100
AcDbArc
 50
0.000000000
 51
90.000000000
  0
LINE
  5
ADF
330
A02
100
AcDbEntity
  8
View013
100
AcDbLine
 10
70.726303200
 20
41.093562089
 30
0.000000000
 11
70.726303200
 21
40.093562089
 31
0.000000000
  0
LINE
  5
AE0
330
A02
100
AcDbEntity
  8
View013
100
AcDbLine
 10
70.726303200
 20
40.093562089
 30
0.000000000
 11
69.346076579
 21
40.093562089
 31
0.000000000
  0
LINE
  5
AE1
330
A02
100
AcDbEntity
  8
View013
100
AcDbLine
 10
69.346076579
 20
40.093562089
 30
0.000000000
 11
69.346076579
 21
35.593562089
 31
0.000000000
  0
ARC
  5
AE2
330
A02
100
AcDbEntity
  8
View013
100
AcDbCircle
 10
67.196076579
 20
32.793562089
 30
0.000000000
 40
3.530226622
100
AcDbArc
 50
127.519113820
 51
52.480886180
  0
LINE
  5
AE3
330
A02
100
AcDbEntity
  8
View013
100
AcDbLine
 10
65.046076579
 20
35.593562089
 30
0.000000000
 11
65.046076579
 21
40.093562089
 31
0.000000000
  0
LINE
  5
AE4
330
A02
100
AcDbEntity
  8
View013
100
AcDbLine
 10
63.665849957
 20
40.093562089
 30
0.000000000
 11
65.046076579
 21
40.093562089
 31
0.000000000
  0
LINE
  5
AE5
330
A02
100
AcDbEntity
  8
View014
100
AcDbLine
 10
77.780903099
 20
40.093562089
 30
0.000000000
 11
77.780903099
 21
41.093562089
 31
0.000000000
  0
ARC
  5
AE6
330
A02
100
AcDbEntity
  8
View014
100
AcDbCircle
 10
78.780903099
 20
41.093562089
 30
0.000000000
 40
1.000000000
100
AcDbArc
 50
90.000000000
 51
180.000000000
  0
LINE
  5
AE7
330
A02
100
AcDbEntity
  8
View014
100
AcDbLine
 10
78.780903099
 20
42.093562089
 30
0.000000000
 11
83.841356342
 21
42.093562089
 31
0.000000000
  0
ARC
  5
AE8
330
A02
100
AcDbEntity
  8
View014
100
AcDbCircle
 10
83.841356342
 20
41.093562089
 30
0.000000000
 40
1.000000000
100
AcDbArc
 50
0.000000000
 51
90.000000000
  0
LINE
  5
AE9
330
A02
100
AcDbEntity
  8
View014
100
AcDbLine
 10
84.841356342
 20
41.093562089
 30
0.000000000
 11
84.841356342
 21
40.093562089
 31
0.000000000
  0
LINE
  5
AEA
330
A02
100
AcDbEntity
  8
View014
100
AcDbLine
 10
84.841356342
 20
40.093562089
 30
0.000000000
 11
83.461129720
 21
40.093562089
 31
0.000000000
  0
LINE
  5
AEB
330
A02
100
AcDbEntity
  8
View014
100
AcDbLine
 10
83.461129720
 20
40.093562089
 30
0.000000000
 11
83.461129720
 21
35.593562089
 31
0.000000000
  0
ARC
  5
AEC
330
A02
100
AcDbEntity
  8
View014
100
AcDbCircle
 10
81.311129720
 20
32.793562089
 30
0.000000000
 40
3.530226622
100
AcDbArc
 50
127.519113820
 51
52.480886180
  0
LINE
  5
AED
330
A02
100
AcDbEntity
  8
View014
100
AcDbLine
 10
79.161129720
 20
35.593562089
 30
0.000000000
 11
79.161129720
 21
40.093562089
 31
0.000000000
  0
LINE
  5
AEE
330
A02
100
AcDbEntity
  8
View014
100
AcDbLine
 10
77.780903099
 20
40.093562089
 30
0.000000000
 11
79.161129720
 21
40.093562089
 31
0.000000000
  0
ENDSEC
  0
SECTION
  2
OBJECTS
  0
DICTIONARY
  5
F000
330
0
100
AcDbDictionary
  3
ACAD_GROUP
350
F001
  0
DICTIONARY
  5
F001
330
F000
100
AcDbDictionary
  0
ENDSEC
  0
EOF