999
FreeCAD v1.0 39319 (Git)
  0
SECTION
  2
HEADER
  9
$ACADVER
  1
AC1014
  9
$ACADMAINTVER
 70
     9
  9
$DWGCODEPAGE
  3
ANSI_1252
  9
$TEXTSTYLE
  7
STANDARD
  9
$DIMSTYLE
  2
STANDARD
  9
$DIMTXSTY
  7
STANDARD
  9
$CMLSTYLE
  2
STANDARD
  9
$LUNITS
 70
2
  9
$INSUNITS
 70
4
  9
$PEXTMAX
 10
50
 20
50
 30
50
  9
$PEXTMIN
 10
0
 20
0
 30
0
  9
$HANDSEED
  5
FFFF
  0
ENDSEC
  0
SECTION
  2
CLASSES
  0
CLASS
  1
ACDBDICTIONARYWDFLT
  2
AcDbDictionaryWithDefault
  3
ObjectDBX Classes
 90
        0
280
     0
281
     0
  0
CLASS
  1
XRECORD
  2
AcDbXrecord
  3
ObjectDBX Classes
 90
        0
280
     0
281
     0
  0
CLASS
  1
LWPOLYLINE
  2
AcDbPolyline
  3
ObjectDBX Classes
 90
        0
280
     0
281
     1
  0
ENDSEC
  0
SECTION
  2
TABLES
  0
TABLE
  2
VPORT
  5
20
330
0
100
AcDbSymbolTable
 70
     1
  0
VPORT
  5
21
330
20
100
AcDbSymbolTableRecord
100
AcDbViewportTableRecord
  2
*ACTIVE
 70
     0
  0
ENDTAB
  0
TABLE
  2
LTYPE
  5
22
330
0
100
AcDbSymbolTable
 70
     1
  0
LTYPE
  5
23
330
21
100
AcDbSymbolTableRecord
100
AcDbLinetypeTableRecord
  2
BYBLOCK
 70
     0
  3

 72
    65
 73
     0
 40
0.0
  0
LTYPE
  5
24
330
21
100
AcDbSymbolTableRecord
100
AcDbLinetypeTableRecord
  2
BYLAYER
 70
     0
  3

 72
    65
 73
     0
 40
0.0
  0
LTYPE
  5
25
330
21
100
AcDbSymbolTableRecord
100
AcDbLinetypeTableRecord
  2
CONTINUOUS
 70
     0
  3
Solid line
 72
    65
 73
     0
 40
0.0
  0
ENDTAB
  0
TABLE
  2
LAYER
  5
AED
330
0
100
AcDbSymbolTable
 70
13
  0
LAYER
  5
AEE
330
AED
100
AcDbSymbolTableRecord
100
AcDbLayerTableRecord
  2
0
 70
   0
 62
   7
  6
CONTINUOUS
  0
LAYER
  5
AEF
330
AED
100
AcDbSymbolTableRecord
100
AcDbLayerTableRecord
  2
View
 70
    0
 62
    7
  6
CONTINUOUS
  0
LAYER
  5
AF0
330
AED
100
AcDbSymbolTableRecord
100
AcDbLayerTableRecord
  2
View001
 70
    0
 62
    7
  6
CONTINUOUS
  0
LAYER
  5
AF1
330
AED
100
AcDbSymbolTableRecord
100
AcDbLayerTableRecord
  2
View002
 70
    0
 62
    7
  6
CONTINUOUS
  0
LAYER
  5
AF2
330
AED
100
AcDbSymbolTableRecord
100
AcDbLayerTableRecord
  2
View004
 70
    0
 62
    7
  6
CONTINUOUS
  0
LAYER
  5
AF3
330
AED
100
AcDbSymbolTableRecord
100
AcDbLayerTableRecord
  2
View005
 70
    0
 62
    7
  6
CONTINUOUS
  0
LAYER
  5
AF4
330
AED
100
AcDbSymbolTableRecord
100
AcDbLayerTableRecord
  2
View008
 70
    0
 62
    7
  6
CONTINUOUS
  0
LAYER
  5
AF5
330
AED
100
AcDbSymbolTableRecord
100
AcDbLayerTableRecord
  2
View009
 70
    0
 62
    7
  6
CONTINUOUS
  0
LAYER
  5
AF6
330
AED
100
AcDbSymbolTableRecord
100
AcDbLayerTableRecord
  2
View010
 70
    0
 62
    7
  6
CONTINUOUS
  0
LAYER
  5
AF7
330
AED
100
AcDbSymbolTableRecord
100
AcDbLayerTableRecord
  2
View011
 70
    0
 62
    7
  6
CONTINUOUS
  0
LAYER
  5
AF8
330
AED
100
AcDbSymbolTableRecord
100
AcDbLayerTableRecord
  2
View012
 70
    0
 62
    7
  6
CONTINUOUS
  0
LAYER
  5
AF9
330
AED
100
AcDbSymbolTableRecord
100
AcDbLayerTableRecord
  2
View013
 70
    0
 62
    7
  6
CONTINUOUS
  0
LAYER
  5
AFA
330
AED
100
AcDbSymbolTableRecord
100
AcDbLayerTableRecord
  2
View014
 70
    0
 62
    7
  6
CONTINUOUS
  0
ENDTAB
  0
TABLE
  2
STYLE
  5
70
330
0
100
AcDbSymbolTable
 70
     2
  0
STYLE
  5
71
330
70
100
AcDbSymbolTableRecord
100
AcDbTextStyleTableRecord
  2
STANDARD
 70
     0
 40
0.0
 41
1.0
 50
0.0
 71
     0
 42
2.5
  3
arial.ttf
  4

  0
STYLE
  5
72
330
70
100
AcDbSymbolTableRecord
100
AcDbTextStyleTableRecord
  2
ANNOTATIVE
 70
     0
 40
0.0
 41
1.0
 50
0.0
 71
     0
 42
2.5
  3
arial.ttf
  4

  0
ENDTAB
  0
TABLE
  2
VIEW
  5
73
330
0
100
AcDbSymbolTable
 70
     0
  0
ENDTAB
  0
TABLE
  2
UCS
  5
74
330
0
100
AcDbSymbolTable
 70
     0
  0
ENDTAB
  0
TABLE
  2
APPID
  5
75
330
0
100
AcDbSymbolTable
 70
     2
  0
APPID
  5
76
330
75
100
AcDbSymbolTableRecord
100
AcDbRegAppTableRecord
  2
ACAD
 70
     0
  0
APPID
  5
77
330
75
100
AcDbSymbolTableRecord
100
AcDbRegAppTableRecord
  2
ACADANNOTATIVE
 70
     0
  0
ENDTAB
  0
TABLE
  2
DIMSTYLE
  5
78
330
0
100
AcDbSymbolTable
 70
     2
  0
DIMSTYLE
105
79
330
78
100
AcDbSymbolTableRecord
100
AcDbDimStyleTableRecord
  2
STANDARD
 70
     0
  3

  4

  5

  6

  7

 40
0.0
 41
2.5
 42
0.625
 43
3.75
 44
1.25
 45
0.0
 46
0.0
 47
0.0
 48
0.0
140
2.5
141
2.5
142
0.0
143
0.03937007874016
144
1.0
145
0.0
146
1.0
147
0.625
 71
     0
 72
     0
 73
     0
 74
     0
 75
     0
 76
     0
 77
     1
 78
     8
170
     0
171
     3
172
     1
173
     0
174
     0
175
     0
176
     0
177
     0
178
     0
270
     2
271
     2
272
     2
273
     2
274
     3
340
71
275
     0
280
     0
281
     0
282
     0
283
     0
284
     8
285
     0
286
     0
287
     3
288
     0
  0
ENDTAB
  0
TABLE
  2
BLOCK_RECORD
  5
A01
330
0
100
AcDbSymbolTable
  70
5
  0
BLOCK_RECORD
  5
A02
330
A01
100
AcDbSymbolTableRecord
100
AcDbBlockTableRecord
  2
*MODEL_SPACE
  0
BLOCK_RECORD
  5
A03
330
A01
100
AcDbSymbolTableRecord
100
AcDbBlockTableRecord
  2
*PAPER_SPACE
  0
ENDTAB
  0
ENDSEC
  0
SECTION
  2
BLOCKS
  0
BLOCK
  5
A04
330
A02
100
AcDbEntity
  8
0
100
AcDbBlockBegin
  2
*MODEL_SPACE
 70
   0
 10
0
 20
0
 30
0
  3
*MODEL_SPACE
  1
 
  0
ENDBLK
  5
A05
330
A02
100
AcDbEntity
  8
0
100
AcDbBlockEnd
  0
BLOCK
  5
A06
330
A03
100
AcDbEntity
 67
1
  8
0
100
AcDbBlockBegin
  2
*PAPER_SPACE
 70
   0
 10
0
 20
0
 30
0
  3
*PAPER_SPACE
  1
 
  0
ENDBLK
  5
A07
330
A03
100
AcDbEntity
 67
    1
  8
0
100
AcDbBlockEnd
  0
ENDSEC
  0
SECTION
  2
ENTITIES
  0
LINE
  5
A08
330
A02
100
AcDbEntity
  8
View
100
AcDbLine
 10
77.705729167
 20
192.476562500
 30
0.000000000
 11
77.705729167
 21
187.476562500
 31
0.000000000
  0
LINE
  5
A09
330
A02
100
AcDbEntity
  8
View
100
AcDbLine
 10
77.705729167
 20
192.476562500
 30
0.000000000
 11
71.705729167
 21
192.476562500
 31
0.000000000
  0
LINE
  5
A0A
330
A02
100
AcDbEntity
  8
View
100
AcDbLine
 10
77.705729167
 20
187.476562500
 30
0.000000000
 11
79.705729167
 21
187.476562500
 31
0.000000000
  0
LINE
  5
A0B
330
A02
100
AcDbEntity
  8
View
100
AcDbLine
 10
71.705729167
 20
192.476562500
 30
0.000000000
 11
71.705729167
 21
202.476562500
 31
0.000000000
  0
LINE
  5
A0C
330
A02
100
AcDbEntity
  8
View
100
AcDbLine
 10
79.705729167
 20
187.476562500
 30
0.000000000
 11
79.705729167
 21
147.476562500
 31
0.000000000
  0
LINE
  5
A0D
330
A02
100
AcDbEntity
  8
View
100
AcDbLine
 10
69.705729167
 20
202.476562500
 30
0.000000000
 11
71.705729167
 21
202.476562500
 31
0.000000000
  0
LINE
  5
A0E
330
A02
100
AcDbEntity
  8
View
100
AcDbLine
 10
79.705729167
 20
147.476562500
 30
0.000000000
 11
77.705729167
 21
147.476562500
 31
0.000000000
  0
LINE
  5
A0F
330
A02
100
AcDbEntity
  8
View
100
AcDbLine
 10
69.705729167
 20
204.476562500
 30
0.000000000
 11
69.705729167
 21
202.476562500
 31
0.000000000
  0
LINE
  5
A10
330
A02
100
AcDbEntity
  8
View
100
AcDbLine
 10
77.705729167
 20
147.476562500
 30
0.000000000
 11
77.705729167
 21
134.476562500
 31
0.000000000
  0
LINE
  5
A11
330
A02
100
AcDbEntity
  8
View
100
AcDbLine
 10
15.705729167
 20
204.476562500
 30
0.000000000
 11
69.705729167
 21
204.476562500
 31
0.000000000
  0
LINE
  5
A12
330
A02
100
AcDbEntity
  8
View
100
AcDbLine
 10
69.705729167
 20
134.476562500
 30
0.000000000
 11
77.705729167
 21
134.476562500
 31
0.000000000
  0
LINE
  5
A13
330
A02
100
AcDbEntity
  8
View
100
AcDbLine
 10
15.705729167
 20
202.476562500
 30
0.000000000
 11
15.705729167
 21
204.476562500
 31
0.000000000
  0
LINE
  5
A14
330
A02
100
AcDbEntity
  8
View
100
AcDbLine
 10
69.705729167
 20
132.476562500
 30
0.000000000
 11
69.705729167
 21
134.476562500
 31
0.000000000
  0
LINE
  5
A15
330
A02
100
AcDbEntity
  8
View
100
AcDbLine
 10
15.705729167
 20
202.476562500
 30
0.000000000
 11
7.705729167
 21
202.476562500
 31
0.000000000
  0
LINE
  5
A16
330
A02
100
AcDbEntity
  8
View
100
AcDbLine
 10
15.705729167
 20
132.476562500
 30
0.000000000
 11
69.705729167
 21
132.476562500
 31
0.000000000
  0
LINE
  5
A17
330
A02
100
AcDbEntity
  8
View
100
AcDbLine
 10
7.705729167
 20
202.476562500
 30
0.000000000
 11
7.705729167
 21
187.476562500
 31
0.000000000
  0
LINE
  5
A18
330
A02
100
AcDbEntity
  8
View
100
AcDbLine
 10
15.705729167
 20
134.476562500
 30
0.000000000
 11
15.705729167
 21
132.476562500
 31
0.000000000
  0
LINE
  5
A19
330
A02
100
AcDbEntity
  8
View
100
AcDbLine
 10
7.705729167
 20
187.476562500
 30
0.000000000
 11
5.705729167
 21
187.476562500
 31
0.000000000
  0
LINE
  5
A1A
330
A02
100
AcDbEntity
  8
View
100
AcDbLine
 10
7.705729167
 20
134.476562500
 30
0.000000000
 11
15.705729167
 21
134.476562500
 31
0.000000000
  0
LINE
  5
A1B
330
A02
100
AcDbEntity
  8
View
100
AcDbLine
 10
5.705729167
 20
147.476562500
 30
0.000000000
 11
5.705729167
 21
187.476562500
 31
0.000000000
  0
LINE
  5
A1C
330
A02
100
AcDbEntity
  8
View
100
AcDbLine
 10
7.705729167
 20
134.476562500
 30
0.000000000
 11
7.705729167
 21
147.476562500
 31
0.000000000
  0
LINE
  5
A1D
330
A02
100
AcDbEntity
  8
View
100
AcDbLine
 10
7.705729167
 20
147.476562500
 30
0.000000000
 11
5.705729167
 21
147.476562500
 31
0.000000000
  0
CIRCLE
  5
A1E
330
A02
100
AcDbEntity
  8
View
100
AcDbCircle
 10
17.705729167
 20
167.476562500
 30
0.000000000
 40
5.000000000
  0
LINE
  5
A1F
330
A02
100
AcDbEntity
  8
View
100
AcDbLine
 10
32.705729167
 20
192.297489005
 30
0.000000000
 11
30.205729167
 21
192.297489005
 31
0.000000000
  0
LINE
  5
A20
330
A02
100
AcDbEntity
  8
View
100
AcDbLine
 10
32.705729167
 20
171.297489005
 30
0.000000000
 11
32.705729167
 21
192.297489005
 31
0.000000000
  0
LINE
  5
A21
330
A02
100
AcDbEntity
  8
View
100
AcDbLine
 10
30.205729167
 20
171.297489005
 30
0.000000000
 11
32.705729167
 21
171.297489005
 31
0.000000000
  0
LINE
  5
A22
330
A02
100
AcDbEntity
  8
View
100
AcDbLine
 10
30.205729167
 20
192.297489005
 30
0.000000000
 11
30.205729167
 21
171.297489005
 31
0.000000000
  0
LINE
  5
A23
330
A02
100
AcDbEntity
  8
View
100
AcDbLine
 10
36.705729167
 20
134.297489005
 30
0.000000000
 11
48.705729167
 21
134.297489005
 31
0.000000000
  0
LINE
  5
A24
330
A02
100
AcDbEntity
  8
View
100
AcDbLine
 10
36.705729167
 20
153.297489005
 30
0.000000000
 11
36.705729167
 21
134.297489005
 31
0.000000000
  0
LINE
  5
A25
330
A02
100
AcDbEntity
  8
View
100
AcDbLine
 10
48.705729167
 20
153.297489005
 30
0.000000000
 11
36.705729167
 21
153.297489005
 31
0.000000000
  0
LINE
  5
A26
330
A02
100
AcDbEntity
  8
View
100
AcDbLine
 10
48.705729167
 20
134.297489005
 30
0.000000000
 11
48.705729167
 21
153.297489005
 31
0.000000000
  0
LINE
  5
A27
330
A02
100
AcDbEntity
  8
View
100
AcDbLine
 10
55.205729167
 20
171.297489005
 30
0.000000000
 11
55.205729167
 21
192.297489005
 31
0.000000000
  0
LINE
  5
A28
330
A02
100
AcDbEntity
  8
View
100
AcDbLine
 10
52.705729167
 20
171.297489005
 30
0.000000000
 11
55.205729167
 21
171.297489005
 31
0.000000000
  0
LINE
  5
A29
330
A02
100
AcDbEntity
  8
View
100
AcDbLine
 10
52.705729167
 20
192.297489005
 30
0.000000000
 11
52.705729167
 21
171.297489005
 31
0.000000000
  0
LINE
  5
A2A
330
A02
100
AcDbEntity
  8
View
100
AcDbLine
 10
55.205729167
 20
192.297489005
 30
0.000000000
 11
52.705729167
 21
192.297489005
 31
0.000000000
  0
LINE
  5
A2B
330
A02
100
AcDbEntity
  8
View001
100
AcDbLine
 10
157.051432292
 20
192.476562500
 30
0.000000000
 11
157.051432292
 21
187.476562500
 31
0.000000000
  0
LINE
  5
A2C
330
A02
100
AcDbEntity
  8
View001
100
AcDbLine
 10
157.051432292
 20
192.476562500
 30
0.000000000
 11
151.051432292
 21
192.476562500
 31
0.000000000
  0
LINE
  5
A2D
330
A02
100
AcDbEntity
  8
View001
100
AcDbLine
 10
157.051432292
 20
187.476562500
 30
0.000000000
 11
159.051432292
 21
187.476562500
 31
0.000000000
  0
LINE
  5
A2E
330
A02
100
AcDbEntity
  8
View001
100
AcDbLine
 10
151.051432292
 20
192.476562500
 30
0.000000000
 11
151.051432292
 21
202.476562500
 31
0.000000000
  0
LINE
  5
A2F
330
A02
100
AcDbEntity
  8
View001
100
AcDbLine
 10
159.051432292
 20
187.476562500
 30
0.000000000
 11
159.051432292
 21
147.476562500
 31
0.000000000
  0
LINE
  5
A30
330
A02
100
AcDbEntity
  8
View001
100
AcDbLine
 10
149.051432292
 20
202.476562500
 30
0.000000000
 11
151.051432292
 21
202.476562500
 31
0.000000000
  0
LINE
  5
A31
330
A02
100
AcDbEntity
  8
View001
100
AcDbLine
 10
159.051432292
 20
147.476562500
 30
0.000000000
 11
157.051432292
 21
147.476562500
 31
0.000000000
  0
LINE
  5
A32
330
A02
100
AcDbEntity
  8
View001
100
AcDbLine
 10
149.051432292
 20
204.476562500
 30
0.000000000
 11
149.051432292
 21
202.476562500
 31
0.000000000
  0
LINE
  5
A33
330
A02
100
AcDbEntity
  8
View001
100
AcDbLine
 10
157.051432292
 20
147.476562500
 30
0.000000000
 11
157.051432292
 21
134.476562500
 31
0.000000000
  0
LINE
  5
A34
330
A02
100
AcDbEntity
  8
View001
100
AcDbLine
 10
95.051432292
 20
204.476562500
 30
0.000000000
 11
149.051432292
 21
204.476562500
 31
0.000000000
  0
LINE
  5
A35
330
A02
100
AcDbEntity
  8
View001
100
AcDbLine
 10
149.051432292
 20
134.476562500
 30
0.000000000
 11
157.051432292
 21
134.476562500
 31
0.000000000
  0
LINE
  5
A36
330
A02
100
AcDbEntity
  8
View001
100
AcDbLine
 10
95.051432292
 20
202.476562500
 30
0.000000000
 11
95.051432292
 21
204.476562500
 31
0.000000000
  0
LINE
  5
A37
330
A02
100
AcDbEntity
  8
View001
100
AcDbLine
 10
149.051432292
 20
132.476562500
 30
0.000000000
 11
149.051432292
 21
134.476562500
 31
0.000000000
  0
LINE
  5
A38
330
A02
100
AcDbEntity
  8
View001
100
AcDbLine
 10
95.051432292
 20
202.476562500
 30
0.000000000
 11
87.051432292
 21
202.476562500
 31
0.000000000
  0
LINE
  5
A39
330
A02
100
AcDbEntity
  8
View001
100
AcDbLine
 10
95.051432292
 20
132.476562500
 30
0.000000000
 11
149.051432292
 21
132.476562500
 31
0.000000000
  0
LINE
  5
A3A
330
A02
100
AcDbEntity
  8
View001
100
AcDbLine
 10
87.051432292
 20
202.476562500
 30
0.000000000
 11
87.051432292
 21
187.476562500
 31
0.000000000
  0
LINE
  5
A3B
330
A02
100
AcDbEntity
  8
View001
100
AcDbLine
 10
95.051432292
 20
134.476562500
 30
0.000000000
 11
95.051432292
 21
132.476562500
 31
0.000000000
  0
LINE
  5
A3C
330
A02
100
AcDbEntity
  8
View001
100
AcDbLine
 10
85.051432292
 20
187.476562500
 30
0.000000000
 11
87.051432292
 21
187.476562500
 31
0.000000000
  0
LINE
  5
A3D
330
A02
100
AcDbEntity
  8
View001
100
AcDbLine
 10
87.051432292
 20
134.476562500
 30
0.000000000
 11
95.051432292
 21
134.476562500
 31
0.000000000
  0
LINE
  5
A3E
330
A02
100
AcDbEntity
  8
View001
100
AcDbLine
 10
85.051432292
 20
147.476562500
 30
0.000000000
 11
85.051432292
 21
187.476562500
 31
0.000000000
  0
LINE
  5
A3F
330
A02
100
AcDbEntity
  8
View001
100
AcDbLine
 10
87.051432292
 20
134.476562500
 30
0.000000000
 11
87.051432292
 21
147.476562500
 31
0.000000000
  0
LINE
  5
A40
330
A02
100
AcDbEntity
  8
View001
100
AcDbLine
 10
87.051432292
 20
147.476562500
 30
0.000000000
 11
85.051432292
 21
147.476562500
 31
0.000000000
  0
LINE
  5
A41
330
A02
100
AcDbEntity
  8
View001
100
AcDbLine
 10
126.301432292
 20
190.476562500
 30
0.000000000
 11
117.801432292
 21
190.476562500
 31
0.000000000
  0
LINE
  5
A42
330
A02
100
AcDbEntity
  8
View001
100
AcDbLine
 10
126.301432292
 20
181.976562500
 30
0.000000000
 11
126.301432292
 21
190.476562500
 31
0.000000000
  0
LINE
  5
A43
330
A02
100
AcDbEntity
  8
View001
100
AcDbLine
 10
117.801432292
 20
181.976562500
 30
0.000000000
 11
126.301432292
 21
181.976562500
 31
0.000000000
  0
LINE
  5
A44
330
A02
100
AcDbEntity
  8
View001
100
AcDbLine
 10
117.801432292
 20
190.476562500
 30
0.000000000
 11
117.801432292
 21
181.976562500
 31
0.000000000
  0
LINE
  5
A45
330
A02
100
AcDbEntity
  8
View002
100
AcDbLine
 10
176.827337937
 20
116.592660388
 30
0.000000000
 11
176.827337937
 21
159.307554541
 31
0.000000000
  0
LINE
  5
A46
330
A02
100
AcDbEntity
  8
View002
100
AcDbLine
 10
178.827337937
 20
116.592660388
 30
0.000000000
 11
176.827337937
 21
116.592660388
 31
0.000000000
  0
LINE
  5
A47
330
A02
100
AcDbEntity
  8
View002
100
AcDbLine
 10
178.827337937
 20
110.592660388
 30
0.000000000
 11
178.827337937
 21
116.592660388
 31
0.000000000
  0
LINE
  5
A48
330
A02
100
AcDbEntity
  8
View002
100
AcDbLine
 10
178.827337937
 20
110.592660388
 30
0.000000000
 11
186.827337937
 21
110.592660388
 31
0.000000000
  0
LINE
  5
A49
330
A02
100
AcDbEntity
  8
View002
100
AcDbLine
 10
186.827337937
 20
110.592660388
 30
0.000000000
 11
186.827337937
 21
108.592660388
 31
0.000000000
  0
LINE
  5
A4A
330
A02
100
AcDbEntity
  8
View002
100
AcDbLine
 10
186.827337937
 20
108.592660388
 30
0.000000000
 11
230.104953729
 21
108.592660388
 31
0.000000000
  0
LINE
  5
A4B
330
A02
100
AcDbEntity
  8
View002
100
AcDbLine
 10
230.104953729
 20
110.592660388
 30
0.000000000
 11
230.104953729
 21
108.592660388
 31
0.000000000
  0
LINE
  5
A4C
330
A02
100
AcDbEntity
  8
View002
100
AcDbLine
 10
234.104953729
 20
110.592660388
 30
0.000000000
 11
230.104953729
 21
110.592660388
 31
0.000000000
  0
LINE
  5
A4D
330
A02
100
AcDbEntity
  8
View002
100
AcDbLine
 10
234.104953729
 20
111.592660388
 30
0.000000000
 11
234.104953729
 21
110.592660388
 31
0.000000000
  0
LINE
  5
A4E
330
A02
100
AcDbEntity
  8
View002
100
AcDbLine
 10
179.785806804
 20
163.307554541
 30
0.000000000
 11
234.104953729
 21
111.592660388
 31
0.000000000
  0
LINE
  5
A4F
330
A02
100
AcDbEntity
  8
View002
100
AcDbLine
 10
178.827337937
 20
163.307554541
 30
0.000000000
 11
179.785806804
 21
163.307554541
 31
0.000000000
  0
LINE
  5
A50
330
A02
100
AcDbEntity
  8
View002
100
AcDbLine
 10
178.827337937
 20
159.307554541
 30
0.000000000
 11
178.827337937
 21
163.307554541
 31
0.000000000
  0
LINE
  5
A51
330
A02
100
AcDbEntity
  8
View002
100
AcDbLine
 10
176.827337937
 20
159.307554541
 30
0.000000000
 11
178.827337937
 21
159.307554541
 31
0.000000000
  0
CIRCLE
  5
A52
330
A02
100
AcDbEntity
  8
View002
100
AcDbCircle
 10
188.827337937
 20
143.592660388
 30
0.000000000
 40
3.500000000
  0
LINE
  5
A53
330
A02
100
AcDbEntity
  8
View004
100
AcDbLine
 10
85.220998937
 20
3.895833333
 30
0.000000000
 11
85.220998937
 21
5.695833333
 31
0.000000000
  0
LINE
  5
A54
330
A02
100
AcDbEntity
  8
View004
100
AcDbLine
 10
85.220998937
 20
3.895833333
 30
0.000000000
 11
7.220998937
 21
3.895833333
 31
0.000000000
  0
LINE
  5
A55
330
A02
100
AcDbEntity
  8
View004
100
AcDbLine
 10
7.220998937
 20
75.895833333
 30
0.000000000
 11
7.220998937
 21
3.895833333
 31
0.000000000
  0
LINE
  5
A56
330
A02
100
AcDbEntity
  8
View004
100
AcDbLine
 10
7.220998937
 20
75.895833333
 30
0.000000000
 11
85.220998937
 21
75.895833333
 31
0.000000000
  0
LINE
  5
A57
330
A02
100
AcDbEntity
  8
View004
100
AcDbLine
 10
85.220998937
 20
75.895833333
 30
0.000000000
 11
85.220998937
 21
73.895833333
 31
0.000000000
  0
LINE
  5
A58
330
A02
100
AcDbEntity
  8
View004
100
AcDbLine
 10
96.120998937
 20
73.895833333
 30
0.000000000
 11
85.220998937
 21
73.895833333
 31
0.000000000
  0
LINE
  5
A59
330
A02
100
AcDbEntity
  8
View004
100
AcDbLine
 10
96.120998937
 20
71.895833333
 30
0.000000000
 11
96.120998937
 21
73.895833333
 31
0.000000000
  0
ARC
  5
A5A
330
A02
100
AcDbEntity
  8
View004
100
AcDbCircle
 10
98.120998937
 20
68.703146662
 30
0.000000000
 40
3.767392756
100
AcDbArc
 50
122.064331594
 51
57.935668406
  0
LINE
  5
A5B
330
A02
100
AcDbEntity
  8
View004
100
AcDbLine
 10
100.120998937
 20
73.895833333
 30
0.000000000
 11
100.120998937
 21
71.895833333
 31
0.000000000
  0
LINE
  5
A5C
330
A02
100
AcDbEntity
  8
View004
100
AcDbLine
 10
137.220998937
 20
73.895833333
 30
0.000000000
 11
100.120998937
 21
73.895833333
 31
0.000000000
  0
ARC
  5
A5D
330
A02
100
AcDbEntity
  8
View004
100
AcDbCircle
 10
137.220998937
 20
65.895833333
 30
0.000000000
 40
8.000000000
100
AcDbArc
 50
0.000000000
 51
90.000000000
  0
LINE
  5
A5E
330
A02
100
AcDbEntity
  8
View004
100
AcDbLine
 10
145.220998937
 20
40.895833333
 30
0.000000000
 11
145.220998937
 21
65.895833333
 31
0.000000000
  0
LINE
  5
A5F
330
A02
100
AcDbEntity
  8
View004
100
AcDbLine
 10
143.220998937
 20
40.895833333
 30
0.000000000
 11
145.220998937
 21
40.895833333
 31
0.000000000
  0
ARC
  5
A60
330
A02
100
AcDbEntity
  8
View004
100
AcDbCircle
 10
140.453629374
 20
38.895833333
 30
0.000000000
 40
3.414430304
100
AcDbArc
 50
35.855938955
 51
-35.855938955
  0
LINE
  5
A61
330
A02
100
AcDbEntity
  8
View004
100
AcDbLine
 10
145.220998937
 20
36.895833333
 30
0.000000000
 11
143.220998937
 21
36.895833333
 31
0.000000000
  0
LINE
  5
A62
330
A02
100
AcDbEntity
  8
View004
100
AcDbLine
 10
145.220998937
 20
13.695833333
 30
0.000000000
 11
145.220998937
 21
36.895833333
 31
0.000000000
  0
ARC
  5
A63
330
A02
100
AcDbEntity
  8
View004
100
AcDbCircle
 10
137.220998937
 20
13.695833333
 30
0.000000000
 40
8.000000000
100
AcDbArc
 50
-90.000000000
 51
0.000000000
  0
LINE
  5
A64
330
A02
100
AcDbEntity
  8
View004
100
AcDbLine
 10
100.120998937
 20
5.695833333
 30
0.000000000
 11
137.220998937
 21
5.695833333
 31
0.000000000
  0
LINE
  5
A65
330
A02
100
AcDbEntity
  8
View004
100
AcDbLine
 10
100.120998937
 20
7.695833333
 30
0.000000000
 11
100.120998937
 21
5.695833333
 31
0.000000000
  0
ARC
  5
A66
330
A02
100
AcDbEntity
  8
View004
100
AcDbCircle
 10
98.120998937
 20
10.668884452
 30
0.000000000
 40
3.583159633
100
AcDbArc
 50
-56.070900063
 51
-123.929099937
  0
LINE
  5
A67
330
A02
100
AcDbEntity
  8
View004
100
AcDbLine
 10
96.120998937
 20
5.695833333
 30
0.000000000
 11
96.120998937
 21
7.695833333
 31
0.000000000
  0
LINE
  5
A68
330
A02
100
AcDbEntity
  8
View004
100
AcDbLine
 10
85.220998937
 20
5.695833333
 30
0.000000000
 11
96.120998937
 21
5.695833333
 31
0.000000000
  0
LINE
  5
A69
330
A02
100
AcDbEntity
  8
View004
100
AcDbLine
 10
27.220998937
 20
65.895833333
 30
0.000000000
 11
77.220998937
 21
65.895833333
 31
0.000000000
  0
ARC
  5
A6A
330
A02
100
AcDbEntity
  8
View004
100
AcDbCircle
 10
77.220998937
 20
57.895833333
 30
0.000000000
 40
8.000000000
100
AcDbArc
 50
0.000000000
 51
90.000000000
  0
LINE
  5
A6B
330
A02
100
AcDbEntity
  8
View004
100
AcDbLine
 10
85.220998937
 20
57.895833333
 30
0.000000000
 11
85.220998937
 21
19.895833333
 31
0.000000000
  0
ARC
  5
A6C
330
A02
100
AcDbEntity
  8
View004
100
AcDbCircle
 10
77.220998937
 20
19.895833333
 30
0.000000000
 40
8.000000000
100
AcDbArc
 50
-90.000000000
 51
0.000000000
  0
LINE
  5
A6D
330
A02
100
AcDbEntity
  8
View004
100
AcDbLine
 10
77.220998937
 20
11.895833333
 30
0.000000000
 11
27.220998937
 21
11.895833333
 31
0.000000000
  0
LINE
  5
A6E
330
A02
100
AcDbEntity
  8
View004
100
AcDbLine
 10
27.220998937
 20
11.895833333
 30
0.000000000
 11
27.220998937
 21
65.895833333
 31
0.000000000
  0
LINE
  5
A6F
330
A02
100
AcDbEntity
  8
View004
100
AcDbLine
 10
93.420998937
 20
58.895833333
 30
0.000000000
 11
95.220998937
 21
58.895833333
 31
0.000000000
  0
LINE
  5
A70
330
A02
100
AcDbEntity
  8
View004
100
AcDbLine
 10
95.220998937
 20
58.895833333
 30
0.000000000
 11
95.220998937
 21
18.895833333
 31
0.000000000
  0
LINE
  5
A71
330
A02
100
AcDbEntity
  8
View004
100
AcDbLine
 10
95.220998937
 20
18.895833333
 30
0.000000000
 11
93.420998937
 21
18.895833333
 31
0.000000000
  0
LINE
  5
A72
330
A02
100
AcDbEntity
  8
View004
100
AcDbLine
 10
93.420998937
 20
18.895833333
 30
0.000000000
 11
93.420998937
 21
58.895833333
 31
0.000000000
  0
LINE
  5
A73
330
A02
100
AcDbEntity
  8
View004
100
AcDbLine
 10
101.220998937
 20
58.895833333
 30
0.000000000
 11
101.220998937
 21
18.895833333
 31
0.000000000
  0
LINE
  5
A74
330
A02
100
AcDbEntity
  8
View004
100
AcDbLine
 10
101.220998937
 20
18.895833333
 30
0.000000000
 11
103.020998937
 21
18.895833333
 31
0.000000000
  0
LINE
  5
A75
330
A02
100
AcDbEntity
  8
View004
100
AcDbLine
 10
103.020998937
 20
18.895833333
 30
0.000000000
 11
103.020998937
 21
58.895833333
 31
0.000000000
  0
LINE
  5
A76
330
A02
100
AcDbEntity
  8
View004
100
AcDbLine
 10
103.020998937
 20
58.895833333
 30
0.000000000
 11
101.220998937
 21
58.895833333
 31
0.000000000
  0
LINE
  5
A77
330
A02
100
AcDbEntity
  8
View004
100
AcDbLine
 10
135.123873937
 20
48.695833333
 30
0.000000000
 11
135.123873937
 21
11.695833333
 31
0.000000000
  0
LINE
  5
A78
330
A02
100
AcDbEntity
  8
View004
100
AcDbLine
 10
135.123873937
 20
11.695833333
 30
0.000000000
 11
133.323873937
 21
11.695833333
 31
0.000000000
  0
LINE
  5
A79
330
A02
100
AcDbEntity
  8
View004
100
AcDbLine
 10
133.323873937
 20
11.695833333
 30
0.000000000
 11
133.323873937
 21
48.695833333
 31
0.000000000
  0
LINE
  5
A7A
330
A02
100
AcDbEntity
  8
View004
100
AcDbLine
 10
133.323873937
 20
48.695833333
 30
0.000000000
 11
135.123873937
 21
48.695833333
 31
0.000000000
  0
ARC
  5
A7B
330
A02
100
AcDbEntity
  8
View004
100
AcDbCircle
 10
35.189810913
 20
70.840732084
 30
0.000000000
 40
1.000000000
100
AcDbArc
 50
-90.000000000
 51
90.000000000
  0
LINE
  5
A7C
330
A02
100
AcDbEntity
  8
View004
100
AcDbLine
 10
35.189810913
 20
69.840732084
 30
0.000000000
 11
31.189810913
 21
69.840732084
 31
0.000000000
  0
ARC
  5
A7D
330
A02
100
AcDbEntity
  8
View004
100
AcDbCircle
 10
31.189810913
 20
70.840732084
 30
0.000000000
 40
1.000000000
100
AcDbArc
 50
90.000000000
 51
-90.000000000
  0
LINE
  5
A7E
330
A02
100
AcDbEntity
  8
View004
100
AcDbLine
 10
35.189810913
 20
71.840732084
 30
0.000000000
 11
31.189810913
 21
71.840732084
 31
0.000000000
  0
ARC
  5
A7F
330
A02
100
AcDbEntity
  8
View004
100
AcDbCircle
 10
71.189810913
 20
70.840732084
 30
0.000000000
 40
1.000000000
100
AcDbArc
 50
-90.000000000
 51
90.000000000
  0
LINE
  5
A80
330
A02
100
AcDbEntity
  8
View004
100
AcDbLine
 10
71.189810913
 20
69.840732084
 30
0.000000000
 11
67.189810913
 21
69.840732084
 31
0.000000000
  0
ARC
  5
A81
330
A02
100
AcDbEntity
  8
View004
100
AcDbCircle
 10
67.189810913
 20
70.840732084
 30
0.000000000
 40
1.000000000
100
AcDbArc
 50
90.000000000
 51
-90.000000000
  0
LINE
  5
A82
330
A02
100
AcDbEntity
  8
View004
100
AcDbLine
 10
71.189810913
 20
71.840732084
 30
0.000000000
 11
67.189810913
 21
71.840732084
 31
0.000000000
  0
ARC
  5
A83
330
A02
100
AcDbEntity
  8
View004
100
AcDbCircle
 10
53.189810913
 20
70.840732084
 30
0.000000000
 40
1.000000000
100
AcDbArc
 50
-90.000000000
 51
90.000000000
  0
LINE
  5
A84
330
A02
100
AcDbEntity
  8
View004
100
AcDbLine
 10
53.189810913
 20
69.840732084
 30
0.000000000
 11
49.189810913
 21
69.840732084
 31
0.000000000
  0
ARC
  5
A85
330
A02
100
AcDbEntity
  8
View004
100
AcDbCircle
 10
49.189810913
 20
70.840732084
 30
0.000000000
 40
1.000000000
100
AcDbArc
 50
90.000000000
 51
-90.000000000
  0
LINE
  5
A86
330
A02
100
AcDbEntity
  8
View004
100
AcDbLine
 10
53.189810913
 20
71.840732084
 30
0.000000000
 11
49.189810913
 21
71.840732084
 31
0.000000000
  0
CIRCLE
  5
A87
330
A02
100
AcDbEntity
  8
View004
100
AcDbCircle
 10
17.220998937
 20
18.895833333
 30
0.000000000
 40
1.000000000
  0
CIRCLE
  5
A88
330
A02
100
AcDbEntity
  8
View004
100
AcDbCircle
 10
17.220998937
 20
58.895833333
 30
0.000000000
 40
1.000000000
  0
LINE
  5
A89
330
A02
100
AcDbEntity
  8
View005
100
AcDbLine
 10
231.067324729
 20
3.895833333
 30
0.000000000
 11
231.067324729
 21
5.695833333
 31
0.000000000
  0
LINE
  5
A8A
330
A02
100
AcDbEntity
  8
View005
100
AcDbLine
 10
231.067324729
 20
3.895833333
 30
0.000000000
 11
153.067324729
 21
3.895833333
 31
0.000000000
  0
LINE
  5
A8B
330
A02
100
AcDbEntity
  8
View005
100
AcDbLine
 10
153.067324729
 20
75.895833333
 30
0.000000000
 11
153.067324729
 21
3.895833333
 31
0.000000000
  0
LINE
  5
A8C
330
A02
100
AcDbEntity
  8
View005
100
AcDbLine
 10
153.067324729
 20
75.895833333
 30
0.000000000
 11
231.067324729
 21
75.895833333
 31
0.000000000
  0
LINE
  5
A8D
330
A02
100
AcDbEntity
  8
View005
100
AcDbLine
 10
231.067324729
 20
75.895833333
 30
0.000000000
 11
231.067324729
 21
73.895833333
 31
0.000000000
  0
LINE
  5
A8E
330
A02
100
AcDbEntity
  8
View005
100
AcDbLine
 10
242.167324729
 20
73.895833333
 30
0.000000000
 11
231.067324729
 21
73.895833333
 31
0.000000000
  0
LINE
  5
A8F
330
A02
100
AcDbEntity
  8
View005
100
AcDbLine
 10
242.167324729
 20
71.895833333
 30
0.000000000
 11
242.167324729
 21
73.895833333
 31
0.000000000
  0
ARC
  5
A90
330
A02
100
AcDbEntity
  8
View005
100
AcDbCircle
 10
244.167324729
 20
68.895833333
 30
0.000000000
 40
3.605551275
100
AcDbArc
 50
123.690067526
 51
56.309932474
  0
LINE
  5
A91
330
A02
100
AcDbEntity
  8
View005
100
AcDbLine
 10
246.167324729
 20
73.895833333
 30
0.000000000
 11
246.167324729
 21
71.895833333
 31
0.000000000
  0
LINE
  5
A92
330
A02
100
AcDbEntity
  8
View005
100
AcDbLine
 10
283.067324729
 20
73.895833333
 30
0.000000000
 11
246.167324729
 21
73.895833333
 31
0.000000000
  0
ARC
  5
A93
330
A02
100
AcDbEntity
  8
View005
100
AcDbCircle
 10
283.067324729
 20
65.895833333
 30
0.000000000
 40
8.000000000
100
AcDbArc
 50
0.000000000
 51
90.000000000
  0
LINE
  5
A94
330
A02
100
AcDbEntity
  8
View005
100
AcDbLine
 10
291.067324729
 20
40.895833333
 30
0.000000000
 11
291.067324729
 21
65.895833333
 31
0.000000000
  0
LINE
  5
A95
330
A02
100
AcDbEntity
  8
View005
100
AcDbLine
 10
289.067324729
 20
40.895833333
 30
0.000000000
 11
291.067324729
 21
40.895833333
 31
0.000000000
  0
ARC
  5
A96
330
A02
100
AcDbEntity
  8
View005
100
AcDbCircle
 10
286.067324729
 20
38.895852080
 30
0.000000000
 40
3.605540877
100
AcDbArc
 50
33.689819653
 51
-33.689819654
  0
LINE
  5
A97
330
A02
100
AcDbEntity
  8
View005
100
AcDbLine
 10
291.050005729
 20
36.895870827
 30
0.000000000
 11
289.067324729
 21
36.895870827
 31
0.000000000
  0
LINE
  5
A98
330
A02
100
AcDbEntity
  8
View005
100
AcDbLine
 10
291.050005729
 20
13.695823335
 30
0.000000000
 11
291.050005729
 21
36.895870827
 31
0.000000000
  0
ARC
  5
A99
330
A02
100
AcDbEntity
  8
View005
100
AcDbCircle
 10
283.050005729
 20
13.695823335
 30
0.000000000
 40
8.000000000
100
AcDbArc
 50
-89.877870165
 51
0.000000000
  0
LINE
  5
A9A
330
A02
100
AcDbEntity
  8
View005
100
AcDbLine
 10
246.167324729
 20
5.695834385
 30
0.000000000
 11
283.067058258
 21
5.695841509
 31
0.000000000
  0
LINE
  5
A9B
330
A02
100
AcDbEntity
  8
View005
100
AcDbLine
 10
246.167324729
 20
7.695833333
 30
0.000000000
 11
246.167324729
 21
5.695834385
 31
0.000000000
  0
ARC
  5
A9C
330
A02
100
AcDbEntity
  8
View005
100
AcDbCircle
 10
244.167324729
 20
10.695833333
 30
0.000000000
 40
3.605551275
100
AcDbArc
 50
-56.309932474
 51
-123.690067526
  0
LINE
  5
A9D
330
A02
100
AcDbEntity
  8
View005
100
AcDbLine
 10
242.167324729
 20
5.695833333
 30
0.000000000
 11
242.167324729
 21
7.695833333
 31
0.000000000
  0
LINE
  5
A9E
330
A02
100
AcDbEntity
  8
View005
100
AcDbLine
 10
231.067324729
 20
5.695833333
 30
0.000000000
 11
242.167324729
 21
5.695833333
 31
0.000000000
  0
LINE
  5
A9F
330
A02
100
AcDbEntity
  8
View005
100
AcDbLine
 10
173.067324729
 20
65.895833333
 30
0.000000000
 11
223.067324729
 21
65.895833333
 31
0.000000000
  0
ARC
  5
AA0
330
A02
100
AcDbEntity
  8
View005
100
AcDbCircle
 10
223.067324729
 20
57.895833333
 30
0.000000000
 40
8.000000000
100
AcDbArc
 50
0.000000000
 51
90.000000000
  0
LINE
  5
AA1
330
A02
100
AcDbEntity
  8
View005
100
AcDbLine
 10
231.067324729
 20
57.895833333
 30
0.000000000
 11
231.067324729
 21
19.895833333
 31
0.000000000
  0
ARC
  5
AA2
330
A02
100
AcDbEntity
  8
View005
100
AcDbCircle
 10
223.067324729
 20
19.895833333
 30
0.000000000
 40
8.000000000
100
AcDbArc
 50
-90.000000000
 51
0.000000000
  0
LINE
  5
AA3
330
A02
100
AcDbEntity
  8
View005
100
AcDbLine
 10
223.067324729
 20
11.895833333
 30
0.000000000
 11
173.067324729
 21
11.895833333
 31
0.000000000
  0
LINE
  5
AA4
330
A02
100
AcDbEntity
  8
View005
100
AcDbLine
 10
173.067324729
 20
11.895833333
 30
0.000000000
 11
173.067324729
 21
65.895833333
 31
0.000000000
  0
LINE
  5
AA5
330
A02
100
AcDbEntity
  8
View005
100
AcDbLine
 10
270.067324729
 20
54.595833333
 30
0.000000000
 11
270.067324729
 21
11.895833333
 31
0.000000000
  0
LINE
  5
AA6
330
A02
100
AcDbEntity
  8
View005
100
AcDbLine
 10
270.067324729
 20
11.895833333
 30
0.000000000
 11
268.267324729
 21
11.895833333
 31
0.000000000
  0
LINE
  5
AA7
330
A02
100
AcDbEntity
  8
View005
100
AcDbLine
 10
268.267324729
 20
11.895833333
 30
0.000000000
 11
268.267324729
 21
54.595833333
 31
0.000000000
  0
LINE
  5
AA8
330
A02
100
AcDbEntity
  8
View005
100
AcDbLine
 10
268.267324729
 20
54.595833333
 30
0.000000000
 11
270.067324729
 21
54.595833333
 31
0.000000000
  0
LINE
  5
AA9
330
A02
100
AcDbEntity
  8
View005
100
AcDbLine
 10
239.067324729
 20
58.895833333
 30
0.000000000
 11
240.867324729
 21
58.895833333
 31
0.000000000
  0
LINE
  5
AAA
330
A02
100
AcDbEntity
  8
View005
100
AcDbLine
 10
240.867324729
 20
58.895833333
 30
0.000000000
 11
240.867324729
 21
18.895833333
 31
0.000000000
  0
LINE
  5
AAB
330
A02
100
AcDbEntity
  8
View005
100
AcDbLine
 10
240.867324729
 20
18.895833333
 30
0.000000000
 11
239.067324729
 21
18.895833333
 31
0.000000000
  0
LINE
  5
AAC
330
A02
100
AcDbEntity
  8
View005
100
AcDbLine
 10
239.067324729
 20
18.895833333
 30
0.000000000
 11
239.067324729
 21
58.895833333
 31
0.000000000
  0
LINE
  5
AAD
330
A02
100
AcDbEntity
  8
View005
100
AcDbLine
 10
247.267324729
 20
58.895833333
 30
0.000000000
 11
247.267324729
 21
18.895833333
 31
0.000000000
  0
LINE
  5
AAE
330
A02
100
AcDbEntity
  8
View005
100
AcDbLine
 10
247.267324729
 20
18.895833333
 30
0.000000000
 11
249.067324729
 21
18.895833333
 31
0.000000000
  0
LINE
  5
AAF
330
A02
100
AcDbEntity
  8
View005
100
AcDbLine
 10
249.067324729
 20
18.895833333
 30
0.000000000
 11
249.067324729
 21
58.895833333
 31
0.000000000
  0
LINE
  5
AB0
330
A02
100
AcDbEntity
  8
View005
100
AcDbLine
 10
249.067324729
 20
58.895833333
 30
0.000000000
 11
247.267324729
 21
58.895833333
 31
0.000000000
  0
LINE
  5
AB1
330
A02
100
AcDbEntity
  8
View005
100
AcDbLine
 10
280.867324729
 20
19.895833333
 30
0.000000000
 11
280.867324729
 21
11.895833333
 31
0.000000000
  0
LINE
  5
AB2
330
A02
100
AcDbEntity
  8
View005
100
AcDbLine
 10
280.867324729
 20
11.895833333
 30
0.000000000
 11
279.067324729
 21
11.895833333
 31
0.000000000
  0
LINE
  5
AB3
330
A02
100
AcDbEntity
  8
View005
100
AcDbLine
 10
279.067324729
 20
11.895833333
 30
0.000000000
 11
279.067324729
 21
19.895833333
 31
0.000000000
  0
LINE
  5
AB4
330
A02
100
AcDbEntity
  8
View005
100
AcDbLine
 10
279.067324729
 20
19.895833333
 30
0.000000000
 11
280.867324729
 21
19.895833333
 31
0.000000000
  0
CIRCLE
  5
AB5
330
A02
100
AcDbEntity
  8
View005
100
AcDbCircle
 10
163.067324729
 20
18.895833333
 30
0.000000000
 40
1.000000000
  0
CIRCLE
  5
AB6
330
A02
100
AcDbEntity
  8
View005
100
AcDbCircle
 10
163.067324729
 20
58.895833333
 30
0.000000000
 40
1.000000000
  0
LINE
  5
AB7
330
A02
100
AcDbEntity
  8
View008
100
AcDbLine
 10
242.648611429
 20
156.382544640
 30
0.000000000
 11
242.648611429
 21
193.581607578
 31
0.000000000
  0
LINE
  5
AB8
330
A02
100
AcDbEntity
  8
View008
100
AcDbLine
 10
242.648611429
 20
193.581607578
 30
0.000000000
 11
240.790243945
 21
193.581607578
 31
0.000000000
  0
LINE
  5
AB9
330
A02
100
AcDbEntity
  8
View008
100
AcDbLine
 10
240.790243945
 20
193.581607578
 30
0.000000000
 11
240.790243945
 21
199.581607578
 31
0.000000000
  0
LINE
  5
ABA
330
A02
100
AcDbEntity
  8
View008
100
AcDbLine
 10
232.790243945
 20
199.581607578
 30
0.000000000
 11
240.790243945
 21
199.581607578
 31
0.000000000
  0
LINE
  5
ABB
330
A02
100
AcDbEntity
  8
View008
100
AcDbLine
 10
232.790243945
 20
201.581607578
 30
0.000000000
 11
232.790243945
 21
199.581607578
 31
0.000000000
  0
LINE
  5
ABC
330
A02
100
AcDbEntity
  8
View008
100
AcDbLine
 10
178.648611429
 20
201.581607578
 30
0.000000000
 11
232.790243945
 21
201.581607578
 31
0.000000000
  0
LINE
  5
ABD
330
A02
100
AcDbEntity
  8
View008
100
AcDbLine
 10
178.648611429
 20
199.581607578
 30
0.000000000
 11
178.648611429
 21
201.581607578
 31
0.000000000
  0
LINE
  5
ABE
330
A02
100
AcDbEntity
  8
View008
100
AcDbLine
 10
170.648611429
 20
199.581607578
 30
0.000000000
 11
178.648611429
 21
199.581607578
 31
0.000000000
  0
LINE
  5
ABF
330
A02
100
AcDbEntity
  8
View008
100
AcDbLine
 10
170.648611429
 20
199.581607578
 30
0.000000000
 11
170.648611429
 21
193.581607578
 31
0.000000000
  0
LINE
  5
AC0
330
A02
100
AcDbEntity
  8
View008
100
AcDbLine
 10
170.648611429
 20
193.581607578
 30
0.000000000
 11
168.648611429
 21
193.581607578
 31
0.000000000
  0
LINE
  5
AC1
330
A02
100
AcDbEntity
  8
View008
100
AcDbLine
 10
168.648611429
 20
193.581607578
 30
0.000000000
 11
168.648611429
 21
185.581607578
 31
0.000000000
  0
LINE
  5
AC2
330
A02
100
AcDbEntity
  8
View008
100
AcDbLine
 10
168.648611429
 20
185.581607578
 30
0.000000000
 11
170.648611429
 21
185.581607578
 31
0.000000000
  0
LINE
  5
AC3
330
A02
100
AcDbEntity
  8
View008
100
AcDbLine
 10
233.002743945
 20
135.525722578
 30
0.000000000
 11
170.648611429
 21
185.581607578
 31
0.000000000
  0
ARC
  5
AC4
330
A02
100
AcDbEntity
  8
View008
100
AcDbCircle
 10
233.443011117
 20
136.077117735
 30
0.000000000
 40
0.705600312
100
AcDbArc
 50
-128.605978015
 51
0.000000000
  0
LINE
  5
AC5
330
A02
100
AcDbEntity
  8
View008
100
AcDbLine
 10
234.148611429
 20
150.382544640
 30
0.000000000
 11
234.148611429
 21
136.077117735
 31
0.000000000
  0
LINE
  5
AC6
330
A02
100
AcDbEntity
  8
View008
100
AcDbLine
 10
240.648611429
 20
150.382544640
 30
0.000000000
 11
234.148611429
 21
150.382544640
 31
0.000000000
  0
LINE
  5
AC7
330
A02
100
AcDbEntity
  8
View008
100
AcDbLine
 10
240.648611429
 20
150.382544640
 30
0.000000000
 11
240.648611429
 21
156.382544640
 31
0.000000000
  0
LINE
  5
AC8
330
A02
100
AcDbEntity
  8
View008
100
AcDbLine
 10
242.648611429
 20
156.382544640
 30
0.000000000
 11
240.648611429
 21
156.382544640
 31
0.000000000
  0
ARC
  5
AC9
330
A02
100
AcDbEntity
  8
View009
100
AcDbCircle
 10
16.842071371
 20
104.283029426
 30
0.000000000
 40
4.677071733
100
AcDbArc
 50
32.311533237
 51
147.688466763
  0
LINE
  5
ACA
330
A02
100
AcDbEntity
  8
View009
100
AcDbLine
 10
20.794918446
 20
106.783029426
 30
0.000000000
 11
19.092071371
 21
106.783029426
 31
0.000000000
  0
LINE
  5
ACB
330
A02
100
AcDbEntity
  8
View009
100
AcDbLine
 10
19.092071371
 20
106.783029426
 30
0.000000000
 11
19.092071371
 21
103.283029426
 31
0.000000000
  0
ARC
  5
ACC
330
A02
100
AcDbEntity
  8
View009
100
AcDbCircle
 10
16.842071371
 20
100.033029426
 30
0.000000000
 40
3.952847075
100
AcDbArc
 50
124.695153531
 51
55.304846469
  0
LINE
  5
ACD
330
A02
100
AcDbEntity
  8
View009
100
AcDbLine
 10
14.592071371
 20
103.283029426
 30
0.000000000
 11
14.592071371
 21
106.783029426
 31
0.000000000
  0
LINE
  5
ACE
330
A02
100
AcDbEntity
  8
View009
100
AcDbLine
 10
12.889224295
 20
106.783029426
 30
0.000000000
 11
14.592071371
 21
106.783029426
 31
0.000000000
  0
ARC
  5
ACF
330
A02
100
AcDbEntity
  8
View010
100
AcDbCircle
 10
32.109971212
 20
104.434029337
 30
0.000000000
 40
4.677071733
100
AcDbArc
 50
32.311533237
 51
147.688466763
  0
LINE
  5
AD0
330
A02
100
AcDbEntity
  8
View010
100
AcDbLine
 10
36.062818287
 20
106.934029337
 30
0.000000000
 11
34.359971212
 21
106.934029337
 31
0.000000000
  0
LINE
  5
AD1
330
A02
100
AcDbEntity
  8
View010
100
AcDbLine
 10
34.359971212
 20
106.934029337
 30
0.000000000
 11
34.359971212
 21
103.434029337
 31
0.000000000
  0
ARC
  5
AD2
330
A02
100
AcDbEntity
  8
View010
100
AcDbCircle
 10
32.109971212
 20
100.184029337
 30
0.000000000
 40
3.952847075
100
AcDbArc
 50
124.695153531
 51
55.304846469
  0
LINE
  5
AD3
330
A02
100
AcDbEntity
  8
View010
100
AcDbLine
 10
29.859971212
 20
103.434029337
 30
0.000000000
 11
29.859971212
 21
106.934029337
 31
0.000000000
  0
LINE
  5
AD4
330
A02
100
AcDbEntity
  8
View010
100
AcDbLine
 10
28.157124137
 20
106.934029337
 30
0.000000000
 11
29.859971212
 21
106.934029337
 31
0.000000000
  0
ARC
  5
AD5
330
A02
100
AcDbEntity
  8
View011
100
AcDbCircle
 10
47.502136942
 20
104.434029337
 30
0.000000000
 40
4.677071733
100
AcDbArc
 50
32.311533237
 51
147.688466763
  0
LINE
  5
AD6
330
A02
100
AcDbEntity
  8
View011
100
AcDbLine
 10
51.454984017
 20
106.934029337
 30
0.000000000
 11
49.752136942
 21
106.934029337
 31
0.000000000
  0
LINE
  5
AD7
330
A02
100
AcDbEntity
  8
View011
100
AcDbLine
 10
49.752136942
 20
106.934029337
 30
0.000000000
 11
49.752136942
 21
103.434029337
 31
0.000000000
  0
ARC
  5
AD8
330
A02
100
AcDbEntity
  8
View011
100
AcDbCircle
 10
47.502136942
 20
100.184029337
 30
0.000000000
 40
3.952847075
100
AcDbArc
 50
124.695153531
 51
55.304846469
  0
LINE
  5
AD9
330
A02
100
AcDbEntity
  8
View011
100
AcDbLine
 10
45.252136942
 20
103.434029337
 30
0.000000000
 11
45.252136942
 21
106.934029337
 31
0.000000000
  0
LINE
  5
ADA
330
A02
100
AcDbEntity
  8
View011
100
AcDbLine
 10
43.549289867
 20
106.934029337
 30
0.000000000
 11
45.252136942
 21
106.934029337
 31
0.000000000
  0
ARC
  5
ADB
330
A02
100
AcDbEntity
  8
View012
100
AcDbCircle
 10
62.606728069
 20
104.434029337
 30
0.000000000
 40
4.677071733
100
AcDbArc
 50
32.311533237
 51
147.688466763
  0
LINE
  5
ADC
330
A02
100
AcDbEntity
  8
View012
100
AcDbLine
 10
66.559575144
 20
106.934029337
 30
0.000000000
 11
64.856728069
 21
106.934029337
 31
0.000000000
  0
LINE
  5
ADD
330
A02
100
AcDbEntity
  8
View012
100
AcDbLine
 10
64.856728069
 20
106.934029337
 30
0.000000000
 11
64.856728069
 21
103.434029337
 31
0.000000000
  0
ARC
  5
ADE
330
A02
100
AcDbEntity
  8
View012
100
AcDbCircle
 10
62.606728069
 20
100.184029337
 30
0.000000000
 40
3.952847075
100
AcDbArc
 50
124.695153531
 51
55.304846469
  0
LINE
  5
ADF
330
A02
100
AcDbEntity
  8
View012
100
AcDbLine
 10
60.356728069
 20
103.434029337
 30
0.000000000
 11
60.356728069
 21
106.934029337
 31
0.000000000
  0
LINE
  5
AE0
330
A02
100
AcDbEntity
  8
View012
100
AcDbLine
 10
58.653880994
 20
106.934029337
 30
0.000000000
 11
60.356728069
 21
106.934029337
 31
0.000000000
  0
ARC
  5
AE1
330
A02
100
AcDbEntity
  8
View013
100
AcDbCircle
 10
76.220998937
 20
104.434029337
 30
0.000000000
 40
4.677071733
100
AcDbArc
 50
32.311533237
 51
147.688466763
  0
LINE
  5
AE2
330
A02
100
AcDbEntity
  8
View013
100
AcDbLine
 10
80.173846012
 20
106.934029337
 30
0.000000000
 11
78.470998937
 21
106.934029337
 31
0.000000000
  0
LINE
  5
AE3
330
A02
100
AcDbEntity
  8
View013
100
AcDbLine
 10
78.470998937
 20
106.934029337
 30
0.000000000
 11
78.470998937
 21
103.434029337
 31
0.000000000
  0
ARC
  5
AE4
330
A02
100
AcDbEntity
  8
View013
100
AcDbCircle
 10
76.220998937
 20
100.184029337
 30
0.000000000
 40
3.952847075
100
AcDbArc
 50
124.695153531
 51
55.304846469
  0
LINE
  5
AE5
330
A02
100
AcDbEntity
  8
View013
100
AcDbLine
 10
73.970998937
 20
103.434029337
 30
0.000000000
 11
73.970998937
 21
106.934029337
 31
0.000000000
  0
LINE
  5
AE6
330
A02
100
AcDbEntity
  8
View013
100
AcDbLine
 10
72.268151861
 20
106.934029337
 30
0.000000000
 11
73.970998937
 21
106.934029337
 31
0.000000000
  0
ARC
  5
AE7
330
A02
100
AcDbEntity
  8
View014
100
AcDbCircle
 10
90.336052078
 20
104.434029337
 30
0.000000000
 40
4.677071733
100
AcDbArc
 50
32.311533237
 51
147.688466763
  0
LINE
  5
AE8
330
A02
100
AcDbEntity
  8
View014
100
AcDbLine
 10
94.288899153
 20
106.934029337
 30
0.000000000
 11
92.586052078
 21
106.934029337
 31
0.000000000
  0
LINE
  5
AE9
330
A02
100
AcDbEntity
  8
View014
100
AcDbLine
 10
92.586052078
 20
106.934029337
 30
0.000000000
 11
92.586052078
 21
103.434029337
 31
0.000000000
  0
ARC
  5
AEA
330
A02
100
AcDbEntity
  8
View014
100
AcDbCircle
 10
90.336052078
 20
100.184029337
 30
0.000000000
 40
3.952847075
100
AcDbArc
 50
124.695153531
 51
55.304846469
  0
LINE
  5
AEB
330
A02
100
AcDbEntity
  8
View014
100
AcDbLine
 10
88.086052078
 20
103.434029337
 30
0.000000000
 11
88.086052078
 21
106.934029337
 31
0.000000000
  0
LINE
  5
AEC
330
A02
100
AcDbEntity
  8
View014
100
AcDbLine
 10
86.383205003
 20
106.934029337
 30
0.000000000
 11
88.086052078
 21
106.934029337
 31
0.000000000
  0
ENDSEC
  0
SECTION
  2
OBJECTS
  0
DICTIONARY
  5
F000
330
0
100
AcDbDictionary
  3
ACAD_GROUP
350
F001
  0
DICTIONARY
  5
F001
330
F000
100
AcDbDictionary
  0
ENDSEC
  0
EOF